<?xml version="1.0" encoding="utf-8"?>
<!-- Generator: Adobe Illustrator 18.0.0, SVG Export Plug-In . SVG Version: 6.00 Build 0)  -->
<!DOCTYPE svg PUBLIC "-//W3C//DTD SVG 1.1//EN" "http://www.w3.org/Graphics/SVG/1.1/DTD/svg11.dtd">
<svg version="1.1" id="Capa_1" xmlns="http://www.w3.org/2000/svg" xmlns:xlink="http://www.w3.org/1999/xlink" x="0px" y="0px"
	 viewBox="0 0 168.4 38.6" enable-background="new 0 0 168.4 38.6" xml:space="preserve">
<g>
	<g>
		<g>
			<g>
				<g>
					<rect x="5.5" y="16.4" fill="#F4CF71" width="17.8" height="1"/>
					<rect x="5.5" y="15.3" fill="#F4CF71" width="1" height="1.9"/>
					<rect x="22.2" y="15.3" fill="#F4CF71" width="1" height="1.9"/>
					<rect x="6.2" y="15.3" fill="#F4CF71" width="16.4" height="0.3"/>
				</g>
				<circle fill="#FFF2AC" cx="14.3" cy="17.8" r="1.1"/>
				<path fill="#FFFFFF" d="M14.3,16.7C14.3,16.7,14.3,16.7,14.3,16.7l0,2.2c0,0,0,0,0,0c0.6,0,1.1-0.5,1.1-1.1S15,16.7,14.3,16.7z"
					/>
				<path fill="#F4CF71" d="M14.3,18.5c-0.4,0-0.8-0.2-1.1-0.6c0.1,0.5,0.5,0.9,1.1,0.9c0.5,0,1-0.4,1.1-0.9
					C15.2,18.3,14.8,18.5,14.3,18.5z"/>
			</g>
			<g>
				<rect x="7.4" y="0" fill="#E23237" width="14" height="15.9"/>
				<rect x="8.9" y="6.6" fill="#FFFFFF" width="1.5" height="9.4"/>
				<rect x="12" y="6.6" fill="#FFFFFF" width="1.5" height="9.4"/>
				<rect x="15.1" y="6.6" fill="#FFFFFF" width="1.5" height="9.4"/>
				<rect x="18.2" y="6.6" fill="#FFFFFF" width="1.5" height="9.4"/>
			</g>
		</g>
		<g>
			<g>
				<path fill="#F4B92F" d="M43.2,19.7c0,0.2-0.1,0.3-0.3,0.3h-1.6c-0.2,0-0.3-0.1-0.3-0.3l0,0c0-0.2,0.1-0.3,0.3-0.3h1.6
					C43.1,19.4,43.2,19.6,43.2,19.7L43.2,19.7z"/>
				<g>
					<path fill="#F4CF71" d="M42.1,18.6c-2.7,0-4.9-1.5-5.2-3.5l-0.1-0.5h10.5l-0.1,0.5C47.1,17.1,44.8,18.6,42.1,18.6z M37.9,15.5
						c0.5,1.3,2.2,2.3,4.3,2.3c2,0,3.8-1,4.3-2.3H37.9z"/>
				</g>
				<g>
					<circle fill="#FFF2AC" cx="42.1" cy="18.6" r="1.1"/>
					<path fill="#FFFFFF" d="M42.1,17.5C42.1,17.5,42.1,17.5,42.1,17.5l0,2.2c0,0,0,0,0,0c0.6,0,1.1-0.5,1.1-1.1
						S42.7,17.5,42.1,17.5z"/>
					<path fill="#F4CF71" d="M42.1,19.3c-0.4,0-0.8-0.2-1.1-0.6c0.1,0.5,0.5,0.9,1.1,0.9c0.5,0,1-0.4,1.1-0.9
						C43,19.1,42.6,19.3,42.1,19.3z"/>
				</g>
				<circle fill="#F4B92F" cx="42.1" cy="27.3" r="7.4"/>
				<circle fill="#F4CF71" cx="42.1" cy="27.3" r="6.9"/>
				<circle fill="#F4B92F" cx="42.1" cy="27.3" r="4.5"/>
				<circle fill="#FFF2AC" cx="42.1" cy="27.3" r="2.9"/>
			</g>
			<g>
				<polygon fill="#0C5083" points="45.9,15.9 38.4,15.9 35.1,8 35.1,0 49.1,0 49.1,8 				"/>
				<polygon fill="#B43F2D" points="38.4,15.9 45.9,15.9 45.9,15.9 45.9,0 38.4,0 38.4,15.9 				"/>
				<g>
					<polygon fill="#FFFFFF" points="37.3,13.1 38.4,15.9 38.4,0 37.3,0 					"/>
					<polygon fill="#FFFFFF" points="47,0 45.9,0 45.9,15.9 47,13.2 					"/>
				</g>
				<g>
					<polygon fill="#FFFFFF" points="44.3,3.1 44.4,3.5 44.8,3.5 44.5,3.8 44.6,4.2 44.3,4 43.9,4.2 44,3.8 43.7,3.5 44.1,3.5 					
						"/>
					<polygon fill="#FFFFFF" points="40,3.1 40.2,3.5 40.6,3.5 40.3,3.8 40.4,4.2 40,4 39.7,4.2 39.8,3.8 39.5,3.5 39.9,3.5 					
						"/>
				</g>
				<rect x="39.5" y="5.5" fill="#FFFFFF" width="1.1" height="10.5"/>
				<rect x="41.6" y="5.5" fill="#FFFFFF" width="1.1" height="10.5"/>
				<rect x="43.7" y="5.5" fill="#FFFFFF" width="1.1" height="10.5"/>
			</g>
		</g>
		<g>
			<g>
				<g>
					<polygon fill="#F4CF71" points="69.9,20.4 72.1,25.2 77.3,24.7 74.2,28.9 77.3,33.2 72.1,32.6 69.9,37.4 67.8,32.6 62.6,33.2 
						65.7,28.9 62.6,24.7 67.8,25.2 					"/>
					<polygon fill="#FFC648" points="69.9,20.4 69.9,28.9 67.8,25.2 					"/>
					<polygon fill="#F4B92F" points="62.6,24.7 69.9,28.9 65.7,28.9 					"/>
					<polygon fill="#F4B92F" points="62.6,33.2 69.9,28.9 67.8,32.6 					"/>
					<polygon fill="#F4CF71" points="77.3,33.2 69.9,28.9 74.2,28.9 					"/>
					<polygon fill="#F4CF71" points="77.3,24.7 69.9,28.9 72.1,25.2 					"/>
					<polygon fill="#FFF2AC" points="69.9,20.4 69.9,28.9 72.1,25.2 					"/>
					<polygon fill="#F4B92F" points="77.3,24.7 69.9,28.9 74.2,28.9 					"/>
					<polygon fill="#F4B92F" points="77.3,33.2 69.9,28.9 72.1,32.6 					"/>
					<polygon fill="#FFC648" points="69.9,37.4 69.9,28.9 67.8,32.6 					"/>
					<polygon fill="#F4CF71" points="62.6,33.2 69.9,28.9 65.7,28.9 					"/>
					<polygon fill="#FFF2AC" points="62.6,24.7 69.9,28.9 67.8,25.2 					"/>
				</g>
				<path fill="#F4CF71" d="M64.3,14.4v2.1l5.7,3.4l5.7-3.4v-2.1H64.3z M74.8,16.1L69.9,19l-4.9-2.9v-0.8h9.7V16.1z"/>
				<g>
					<circle fill="#FFF2AC" cx="69.9" cy="19.9" r="1.1"/>
					<path fill="#FFFFFF" d="M69.9,18.8C69.9,18.8,69.9,18.9,69.9,18.8l0,2.2c0,0,0,0,0,0c0.6,0,1.1-0.5,1.1-1.1
						S70.5,18.8,69.9,18.8z"/>
					<path fill="#F4CF71" d="M69.9,20.7c-0.4,0-0.8-0.2-1.1-0.6c0.1,0.5,0.5,0.9,1.1,0.9c0.5,0,1-0.4,1.1-0.9
						C70.8,20.5,70.4,20.7,69.9,20.7z"/>
				</g>
			</g>
			<g>
				<polygon fill="#B43F2D" points="73.7,15.9 66.2,15.9 62.9,8 62.9,0 76.9,0 76.9,8 				"/>
				<polygon fill="#0C5083" points="66.2,15.9 73.7,15.9 73.7,15.9 73.7,0 66.2,0 66.2,15.9 				"/>
				<g>
					<polygon fill="#FFFFFF" points="65.1,13.1 66.2,15.9 66.2,0 65.1,0 					"/>
					<polygon fill="#FFFFFF" points="74.8,0 73.7,0 73.7,15.9 74.8,13.2 					"/>
				</g>
				<g>
					<polygon fill="#FFFFFF" points="72,5.4 72.2,5.7 72.6,5.8 72.3,6 72.4,6.4 72,6.2 71.7,6.4 71.8,6 71.5,5.8 71.9,5.7 					"/>
					<polygon fill="#FFFFFF" points="67.8,5.4 68,5.7 68.4,5.8 68.1,6 68.1,6.4 67.8,6.2 67.5,6.4 67.5,6 67.3,5.8 67.6,5.7 					
						"/>
				</g>
				<polygon fill="#FFFFFF" points="69.9,7.6 70.5,8.8 71.8,9 70.9,9.9 71.1,11.2 69.9,10.6 68.8,11.2 69,9.9 68,9 69.3,8.8 				"/>
			</g>
		</g>
		
			<radialGradient id="SVGID_1_" cx="70.2517" cy="-764.9116" r="13.5186" gradientTransform="matrix(1 0 0 9.500000e-002 0 72.6613)" gradientUnits="userSpaceOnUse">
			<stop  offset="0" style="stop-color:#A7A9AC"/>
			<stop  offset="0.1912" style="stop-color:#B1B3B5;stop-opacity:0.8088"/>
			<stop  offset="0.5166" style="stop-color:#CCCDCF;stop-opacity:0.4834"/>
			<stop  offset="0.9343" style="stop-color:#F7F8F8;stop-opacity:6.572127e-002"/>
			<stop  offset="1" style="stop-color:#FFFFFF;stop-opacity:0"/>
		</radialGradient>
		<path fill="url(#SVGID_1_)" d="M69.9,1.4c7.9,0,14.4-0.6,14.4-1.4H55.5C55.5,0.8,62,1.4,69.9,1.4z"/>
		
			<radialGradient id="SVGID_2_" cx="42.4637" cy="-764.9116" r="13.5186" gradientTransform="matrix(1 0 0 9.500000e-002 0 72.6613)" gradientUnits="userSpaceOnUse">
			<stop  offset="0" style="stop-color:#A7A9AC"/>
			<stop  offset="0.1912" style="stop-color:#B1B3B5;stop-opacity:0.8088"/>
			<stop  offset="0.5166" style="stop-color:#CCCDCF;stop-opacity:0.4834"/>
			<stop  offset="0.9343" style="stop-color:#F7F8F8;stop-opacity:6.572127e-002"/>
			<stop  offset="1" style="stop-color:#FFFFFF;stop-opacity:0"/>
		</radialGradient>
		<path fill="url(#SVGID_2_)" d="M42.1,1.4c7.9,0,14.4-0.6,14.4-1.4H27.8C27.8,0.8,34.2,1.4,42.1,1.4z"/>
		
			<radialGradient id="SVGID_3_" cx="14.704" cy="-764.9116" r="13.5186" gradientTransform="matrix(1 0 0 9.500000e-002 0 72.6613)" gradientUnits="userSpaceOnUse">
			<stop  offset="0" style="stop-color:#A7A9AC"/>
			<stop  offset="0.1912" style="stop-color:#B1B3B5;stop-opacity:0.8088"/>
			<stop  offset="0.5166" style="stop-color:#CCCDCF;stop-opacity:0.4834"/>
			<stop  offset="0.9343" style="stop-color:#F7F8F8;stop-opacity:6.572127e-002"/>
			<stop  offset="1" style="stop-color:#FFFFFF;stop-opacity:0"/>
		</radialGradient>
		<path fill="url(#SVGID_3_)" d="M14.4,1.4c7.9,0,14.4-0.6,14.4-1.4H0C0,0.8,6.4,1.4,14.4,1.4z"/>
	</g>
	<g>
		<g>
			<g>
				<g>
					<polygon fill="#F4B92F" points="98.5,19.2 101.3,23.1 106.2,23.6 104.2,28.1 106.2,32.5 101.3,33.1 98.5,37 95.6,33.1 
						90.7,32.5 92.7,28.1 90.7,23.6 95.6,23.1 					"/>
					<polygon fill="#FFFFFF" points="106.2,23.6 101.3,23.1 98.5,19.2 98.5,28.1 					"/>
					<polygon fill="#FFF2AC" points="90.7,23.6 95.6,23.1 98.5,19.2 98.5,28.1 					"/>
					<polygon fill="#FFC648" points="90.7,32.5 95.6,33.1 98.5,37 98.5,28.1 					"/>
					<polygon fill="#F4CF71" points="106.2,23.6 98.5,28.1 106.2,32.5 104.2,28.1 					"/>
					<polygon fill="#F4CF71" points="90.7,23.6 98.5,28.1 90.7,32.5 92.7,28.1 					"/>
				</g>
				<circle fill="#DDA026" cx="98.5" cy="28.1" r="3.6"/>
				<circle fill="#F4B92F" cx="98.5" cy="28.1" r="2.7"/>
				<g>
					<path fill="#F4CF71" d="M98.5,18.5c-2.7,0-4.9-1.5-5.2-3.5l-0.1-0.5h10.5l-0.1,0.5C103.4,17.1,101.2,18.5,98.5,18.5z
						 M94.2,15.4c0.5,1.3,2.2,2.3,4.3,2.3c2,0,3.8-1,4.3-2.3H94.2z"/>
				</g>
				<g>
					<circle fill="#FFF2AC" cx="98.5" cy="18.5" r="1.1"/>
					<path fill="#FFFFFF" d="M98.5,17.4C98.5,17.4,98.5,17.4,98.5,17.4l0,2.2c0,0,0,0,0,0c0.6,0,1.1-0.5,1.1-1.1
						S99.1,17.4,98.5,17.4z"/>
					<path fill="#F4CF71" d="M98.5,19.3c-0.4,0-0.8-0.2-1.1-0.6c0.1,0.5,0.5,0.9,1.1,0.9c0.5,0,1-0.4,1.1-0.9
						C99.3,19.1,98.9,19.3,98.5,19.3z"/>
				</g>
			</g>
			<g>
				<polygon fill="#0C5083" points="102.2,15.9 94.7,15.9 91.5,8 91.5,0 105.4,0 105.4,8 				"/>
				<polygon fill="#B43F2D" points="94.7,15.9 102.2,15.9 102.2,15.9 102.2,0 94.7,0 94.7,15.9 				"/>
				<g>
					<polygon fill="#FFFFFF" points="93.6,13.1 94.7,15.9 94.7,0 93.6,0 					"/>
					<polygon fill="#FFFFFF" points="103.3,0 102.2,0 102.2,15.9 103.3,13.2 					"/>
				</g>
				<g>
					<polygon fill="#FFFFFF" points="100.6,5.4 100.7,5.7 101.1,5.8 100.8,6 100.9,6.4 100.6,6.2 100.2,6.4 100.3,6 100,5.8 
						100.4,5.7 					"/>
					<polygon fill="#FFFFFF" points="96.3,5.4 96.5,5.7 96.9,5.8 96.6,6 96.7,6.4 96.3,6.2 96,6.4 96.1,6 95.8,5.8 96.2,5.7 					
						"/>
				</g>
				<polygon fill="#FFFFFF" points="98.5,7.6 99,8.8 100.3,9 99.4,9.9 99.6,11.2 98.5,10.6 97.3,11.2 97.5,9.9 96.6,9 97.9,8.8 				
					"/>
			</g>
		</g>
		<g>
			<g>
				<g>
					<g>
						<polygon fill="#F4B92F" points="120,22.1 126.2,24.7 132.5,22.1 130,28.4 132.5,34.7 126.2,32.2 120,34.7 122.5,28.4 						
							"/>
						<polygon fill="#FFC648" points="120,22.1 126.2,28.4 122.5,28.4 						"/>
						<polygon fill="#FFC648" points="126.2,28.4 120,34.7 126.2,32.2 						"/>
						<polygon fill="#F4CF71" points="132.5,34.7 126.2,28.4 130,28.4 						"/>
						<polygon fill="#F4CF71" points="126.2,28.4 132.5,22.1 126.2,24.7 						"/>
						<polygon fill="#FFF2AC" points="120,22.1 126.2,28.4 126.2,24.7 						"/>
						<polygon fill="#F4B92F" points="126.2,28.4 132.5,22.1 130,28.4 						"/>
						<polygon fill="#F4B92F" points="132.5,34.7 126.2,28.4 126.2,32.2 						"/>
						<polygon fill="#F4CF71" points="126.2,28.4 120,34.7 122.5,28.4 						"/>
					</g>
					<g>
						<polygon fill="#F4B92F" points="126.2,18.2 129.3,25.4 136.4,28.4 129.3,31.5 126.2,38.6 123.2,31.5 116,28.4 123.2,25.4 
													"/>
						<polygon fill="#FFC648" points="126.2,18.2 126.2,28.4 123.2,25.4 						"/>
						<polygon fill="#FFC648" points="126.2,28.4 116,28.4 123.2,31.5 						"/>
						<polygon fill="#F4CF71" points="126.2,38.6 126.2,28.4 129.3,31.5 						"/>
						<polygon fill="#F4CF71" points="126.2,28.4 136.4,28.4 129.3,25.4 						"/>
						<polygon fill="#FFF2AC" points="126.2,18.2 126.2,28.4 129.3,25.4 						"/>
						<polygon fill="#F4B92F" points="126.2,28.4 136.4,28.4 129.3,31.5 						"/>
						<polygon fill="#F4B92F" points="126.2,38.6 126.2,28.4 123.2,31.5 						"/>
						<polygon fill="#F4CF71" points="126.2,28.4 116,28.4 123.2,25.4 						"/>
					</g>
				</g>
				<g>
					<rect x="117.4" y="16.3" fill="#F4CF71" width="17.8" height="1"/>
					<rect x="117.4" y="15.3" fill="#F4CF71" width="1" height="1.9"/>
					<rect x="134.1" y="15.3" fill="#F4CF71" width="1" height="1.9"/>
					<rect x="118.1" y="15.3" fill="#F4CF71" width="16.4" height="0.3"/>
				</g>
				<circle fill="#FFF2AC" cx="126.2" cy="17.7" r="1.1"/>
				<path fill="#FFFFFF" d="M126.2,16.6C126.2,16.6,126.2,16.6,126.2,16.6l0,2.2c0,0,0,0,0,0c0.6,0,1.1-0.5,1.1-1.1
					S126.8,16.6,126.2,16.6z"/>
				<path fill="#F4CF71" d="M126.2,18.5c-0.4,0-0.8-0.2-1.1-0.6c0.1,0.5,0.5,0.9,1.1,0.9c0.5,0,1-0.4,1.1-0.9
					C127.1,18.2,126.7,18.5,126.2,18.5z"/>
			</g>
			<g>
				<rect x="119.2" y="0" fill="#0C5083" width="14" height="15.9"/>
				<g>
					<g>
						<polygon fill="#FFFFFF" points="122.3,13.9 122.5,14.2 122.9,14.3 122.6,14.5 122.6,14.9 122.3,14.7 122,14.9 122,14.5 
							121.8,14.3 122.1,14.2 						"/>
						<polygon fill="#FFFFFF" points="124.3,13.9 124.4,14.2 124.8,14.3 124.5,14.5 124.6,14.9 124.3,14.7 123.9,14.9 124,14.5 
							123.7,14.3 124.1,14.2 						"/>
						<polygon fill="#FFFFFF" points="126.2,13.9 126.4,14.2 126.8,14.3 126.5,14.5 126.6,14.9 126.2,14.7 125.9,14.9 126,14.5 
							125.7,14.3 126.1,14.2 						"/>
						<polygon fill="#FFFFFF" points="128.2,13.9 128.4,14.2 128.7,14.3 128.5,14.5 128.5,14.9 128.2,14.7 127.9,14.9 127.9,14.5 
							127.7,14.3 128,14.2 						"/>
						<polygon fill="#FFFFFF" points="130.2,13.9 130.3,14.2 130.7,14.3 130.4,14.5 130.5,14.9 130.2,14.7 129.8,14.9 129.9,14.5 
							129.6,14.3 130,14.2 						"/>
					</g>
				</g>
				<rect x="120.8" y="0" fill="#FFFFFF" width="1.5" height="9.4"/>
				<rect x="122.4" y="0" fill="#B43F2D" width="1.5" height="9.4"/>
				<rect x="119.2" y="0" fill="#B43F2D" width="1.5" height="9.4"/>
				<rect x="123.9" y="0" fill="#FFFFFF" width="1.5" height="9.4"/>
				<rect x="125.5" y="0" fill="#B43F2D" width="1.5" height="9.4"/>
				<rect x="127" y="0" fill="#FFFFFF" width="1.5" height="9.4"/>
				<rect x="128.6" y="0" fill="#B43F2D" width="1.5" height="9.4"/>
				<rect x="130.1" y="0" fill="#FFFFFF" width="1.5" height="9.4"/>
				<rect x="131.7" y="0" fill="#B43F2D" width="1.5" height="9.4"/>
				<g>
					<rect x="119.7" y="0" fill="#FFFFFF" width="0.3" height="15.9"/>
					<rect x="132.5" y="0" fill="#FFFFFF" width="0.3" height="15.9"/>
				</g>
			</g>
		</g>
		<g>
			<g>
				<path fill="#F4CF71" d="M148.4,14.5v2.1L154,20l5.7-3.4v-2.1H148.4z M158.9,16.1L154,19l-4.9-2.9v-0.8h9.7V16.1z"/>
				<path fill="#F4B92F" d="M161.7,27.6h-0.4c-0.2-2.1-1.3-4-3-5.2l0.2-0.4c0.2-0.4,0.1-0.8-0.3-1c-0.1-0.1-0.2-0.1-0.4-0.1
					c-0.3,0-0.5,0.1-0.6,0.4l-0.2,0.4c-0.9-0.4-2-0.6-3-0.6c-1,0-2.1,0.2-3,0.6l-0.2-0.4c-0.1-0.2-0.4-0.4-0.6-0.4
					c-0.1,0-0.3,0-0.4,0.1c-0.4,0.2-0.5,0.7-0.3,1l0.2,0.4c-1.7,1.2-2.8,3.1-3,5.2h-0.4c-0.4,0-0.7,0.3-0.7,0.7
					c0,0.4,0.3,0.7,0.7,0.7h0.4c0.2,2.1,1.3,4,3,5.2l-0.2,0.4c-0.1,0.2-0.1,0.4-0.1,0.6c0.1,0.2,0.2,0.3,0.3,0.4
					c0.1,0.1,0.2,0.1,0.4,0.1c0.3,0,0.5-0.1,0.6-0.4L151,35c0.9,0.4,2,0.6,3,0.6c1,0,2.1-0.2,3-0.6l0.2,0.4c0.1,0.2,0.4,0.4,0.6,0.4
					c0.1,0,0.3,0,0.4-0.1c0.2-0.1,0.3-0.3,0.3-0.4c0.1-0.2,0-0.4-0.1-0.6l-0.2-0.4c1.7-1.2,2.8-3.1,3-5.2h0.4c0.4,0,0.7-0.3,0.7-0.7
					C162.5,27.9,162.1,27.6,161.7,27.6z M152.3,29.9l-1.9,3.2c-1.3-1-2.2-2.5-2.4-4.1h3.8C151.9,29.3,152.1,29.6,152.3,29.9z
					 M154,29.2c-0.5,0-0.9-0.4-0.9-0.9c0-0.5,0.4-0.9,0.9-0.9c0.5,0,0.9,0.4,0.9,0.9C155,28.8,154.5,29.2,154,29.2z M154.5,26
					c-0.3-0.1-0.6-0.1-1,0l-1.9-3.3c0.7-0.3,1.5-0.5,2.4-0.5c0.8,0,1.6,0.2,2.4,0.5L154.5,26z M153.6,30.6c0.3,0.1,0.6,0.1,1,0
					l1.9,3.3c-0.7,0.3-1.5,0.5-2.4,0.5c-0.8,0-1.6-0.2-2.4-0.5L153.6,30.6z M148,27.6c0.2-1.6,1-3.1,2.4-4.1l1.9,3.2
					c-0.2,0.2-0.4,0.5-0.5,0.8H148z M160,29c-0.2,1.6-1,3.1-2.4,4.1l-1.9-3.2c0.2-0.2,0.4-0.5,0.5-0.8H160z M160,27.6h-3.8
					c-0.1-0.3-0.3-0.6-0.5-0.8l1.9-3.2C159,24.5,159.8,25.9,160,27.6z"/>
				<path fill="#F4B92F" d="M155.1,21.1c0,0.2-0.1,0.3-0.3,0.3h-1.6c-0.2,0-0.3-0.1-0.3-0.3l0,0c0-0.2,0.1-0.3,0.3-0.3h1.6
					C155,20.7,155.1,20.9,155.1,21.1L155.1,21.1z"/>
				<g>
					<circle fill="#FFF2AC" cx="154" cy="20" r="1.1"/>
					<path fill="#FFFFFF" d="M154,18.9C154,18.9,154,18.9,154,18.9l0,2.2c0,0,0,0,0,0c0.6,0,1.1-0.5,1.1-1.1S154.6,18.9,154,18.9z"
						/>
					<path fill="#F4CF71" d="M154,20.7c-0.4,0-0.8-0.2-1.1-0.6c0.1,0.5,0.5,0.9,1.1,0.9c0.5,0,1-0.4,1.1-0.9
						C154.9,20.5,154.5,20.7,154,20.7z"/>
				</g>
				<path fill="#FFC648" d="M161.3,29h0.4c0.4,0,0.7-0.3,0.7-0.7v0H155v0c0,0.3-0.2,0.6-0.5,0.8l3.8,6.5c0.1-0.1,0.3-0.2,0.3-0.4
					c0.1-0.2,0-0.4-0.1-0.6l-0.2-0.4C160,33,161.1,31.1,161.3,29z M157.7,33.1l-1.9-3.2c0.2-0.2,0.4-0.5,0.5-0.8h3.8
					C159.8,30.7,159,32.1,157.7,33.1z"/>
				<path fill="#F4CF71" d="M162.5,28.3c0-0.4-0.3-0.7-0.7-0.7h-0.4c-0.2-2.1-1.3-4-3-5.2l0.2-0.4c0.2-0.3,0.1-0.8-0.2-1l-3.8,6.5
					c0.3,0.2,0.5,0.5,0.5,0.8c0,0,0,0,0,0L162.5,28.3C162.5,28.3,162.5,28.3,162.5,28.3z M156.3,27.6c-0.1-0.3-0.3-0.6-0.5-0.8
					l1.9-3.2c1.3,1,2.2,2.5,2.4,4.1H156.3z"/>
				<path fill="#F4CF71" d="M153.1,28.3c0-0.3,0.2-0.6,0.5-0.8l-3.8-6.5c-0.3,0.2-0.4,0.6-0.2,1l0.2,0.4c-1.7,1.2-2.8,3.1-3,5.2
					h-0.4c-0.4,0-0.7,0.3-0.7,0.7c0,0,0,0,0,0L153.1,28.3C153.1,28.3,153.1,28.3,153.1,28.3z M151.8,27.6H148c0.2-1.6,1-3.1,2.4-4.1
					l1.9,3.2C152.1,27,151.9,27.3,151.8,27.6z"/>
				<path fill="#FFC648" d="M153.1,28.3L153.1,28.3l-7.5,0v0c0,0.4,0.3,0.7,0.7,0.7h0.4c0.2,2.1,1.3,4,3,5.2l-0.2,0.4
					c-0.1,0.2-0.1,0.4-0.1,0.6c0,0.2,0.2,0.3,0.3,0.4l3.8-6.5C153.3,28.9,153.1,28.6,153.1,28.3z M150.4,33.1
					c-1.3-1-2.2-2.5-2.4-4.1h3.8c0.1,0.3,0.3,0.6,0.5,0.8L150.4,33.1z"/>
				<path fill="#FFF2AC" d="M157.2,21.3l-0.2,0.4c-0.9-0.4-2-0.6-3-0.6c-1,0-2.1,0.2-3,0.6l-0.2-0.4c-0.1-0.2-0.4-0.4-0.6-0.4
					c-0.1,0-0.3,0-0.4,0.1c0,0,0,0,0,0l3.8,6.5c0.1-0.1,0.3-0.2,0.5-0.2c0.2,0,0.3,0,0.5,0.1l3.8-6.5l-0.6-0.1
					C157.5,21,157.3,21.1,157.2,21.3z M154.5,26c-0.3-0.1-0.6-0.1-1,0l-1.9-3.3c0.7-0.3,1.5-0.5,2.4-0.5c0.8,0,1.6,0.2,2.4,0.5
					L154.5,26z"/>
			</g>
			<g>
				<polygon fill="#0C5083" points="157.8,15.9 150.3,15.9 147,8 147,0 161,0 161,8 				"/>
				<g>
					<polygon fill="#FFFFFF" points="156.7,12 156.9,12.5 157.4,12.5 157,12.9 157.1,13.3 156.7,13.1 156.3,13.3 156.4,12.9 
						156,12.5 156.5,12.5 					"/>
					<polygon fill="#FFFFFF" points="151.4,12 151.6,12.5 152,12.5 151.7,12.9 151.8,13.3 151.4,13.1 150.9,13.3 151,12.9 
						150.7,12.5 151.1,12.5 					"/>
				</g>
				<rect x="148.6" y="0" fill="#FFFFFF" width="1.5" height="8"/>
				<rect x="150.1" y="0" fill="#B43F2D" width="1.5" height="8"/>
				<rect x="147" y="0" fill="#B43F2D" width="1.5" height="8"/>
				<rect x="151.7" y="0" fill="#FFFFFF" width="1.5" height="8"/>
				<rect x="153.3" y="0" fill="#B43F2D" width="1.5" height="8"/>
				<rect x="154.8" y="0" fill="#FFFFFF" width="1.5" height="8"/>
				<rect x="156.4" y="0" fill="#B43F2D" width="1.5" height="8"/>
				<rect x="157.9" y="0" fill="#FFFFFF" width="1.5" height="8"/>
				<rect x="159.5" y="0" fill="#B43F2D" width="1.5" height="8"/>
			</g>
		</g>
		
			<radialGradient id="SVGID_4_" cx="154.3568" cy="-764.9116" r="13.5185" gradientTransform="matrix(1 0 0 9.500000e-002 0 72.6613)" gradientUnits="userSpaceOnUse">
			<stop  offset="0" style="stop-color:#A7A9AC"/>
			<stop  offset="0.1912" style="stop-color:#B1B3B5;stop-opacity:0.8088"/>
			<stop  offset="0.5166" style="stop-color:#CCCDCF;stop-opacity:0.4834"/>
			<stop  offset="0.9343" style="stop-color:#F7F8F8;stop-opacity:6.572127e-002"/>
			<stop  offset="1" style="stop-color:#FFFFFF;stop-opacity:0"/>
		</radialGradient>
		<path fill="url(#SVGID_4_)" d="M154,1.4c7.9,0,14.4-0.6,14.4-1.4h-28.8C139.7,0.8,146.1,1.4,154,1.4z"/>
		
			<radialGradient id="SVGID_5_" cx="126.5687" cy="-764.9116" r="13.5185" gradientTransform="matrix(1 0 0 9.500000e-002 0 72.6613)" gradientUnits="userSpaceOnUse">
			<stop  offset="0" style="stop-color:#A7A9AC"/>
			<stop  offset="0.1912" style="stop-color:#B1B3B5;stop-opacity:0.8088"/>
			<stop  offset="0.5166" style="stop-color:#CCCDCF;stop-opacity:0.4834"/>
			<stop  offset="0.9343" style="stop-color:#F7F8F8;stop-opacity:6.572127e-002"/>
			<stop  offset="1" style="stop-color:#FFFFFF;stop-opacity:0"/>
		</radialGradient>
		<path fill="url(#SVGID_5_)" d="M126.2,1.4c7.9,0,14.4-0.6,14.4-1.4h-28.8C111.9,0.8,118.3,1.4,126.2,1.4z"/>
		
			<radialGradient id="SVGID_6_" cx="98.8091" cy="-764.9116" r="13.5185" gradientTransform="matrix(1 0 0 9.500000e-002 0 72.6613)" gradientUnits="userSpaceOnUse">
			<stop  offset="0" style="stop-color:#A7A9AC"/>
			<stop  offset="0.1912" style="stop-color:#B1B3B5;stop-opacity:0.8088"/>
			<stop  offset="0.5166" style="stop-color:#CCCDCF;stop-opacity:0.4834"/>
			<stop  offset="0.9343" style="stop-color:#F7F8F8;stop-opacity:6.572127e-002"/>
			<stop  offset="1" style="stop-color:#FFFFFF;stop-opacity:0"/>
		</radialGradient>
		<path fill="url(#SVGID_6_)" d="M98.5,1.4c7.9,0,14.4-0.6,14.4-1.4H84.1C84.1,0.8,90.5,1.4,98.5,1.4z"/>
	</g>
	<g>
		<path fill="#F4B92F" d="M14.4,18.6l-7.5,2.6l1.2,9.8l6.3,3.5l6.4-3.5l1.2-9.8L14.4,18.6z M14.4,18.6"/>
		<path fill="#F4CF71" d="M21.2,21.8l-6.8-2.3v14.3l5.7-3.2L21.2,21.8z M21.2,21.8"/>
		<path fill="#FFC648" d="M7.7,21.8l1,8.8l5.6,3.1V19.5L7.7,21.8z M7.7,21.8"/>
		<path fill="#FFFFFF" d="M16,26.6l-1.6-3.3L13,26.6H16z M16.5,28h-4.2l-0.9,2.3l-1.7,0L14.4,20l4.8,10.3h-1.6L16.5,28z M16.5,28"/>
		<path fill="#FFF2AC" d="M14.4,20l0,3.3l1.6,3.3h-1.6l0,1.4l2.2,0l1,2.4l1.7,0L14.4,20z M14.4,20"/>
	</g>
</g>
</svg>
