<?xml version="1.0" encoding="utf-8"?>
<!-- Generator: Adobe Illustrator 18.0.0, SVG Export Plug-In . SVG Version: 6.00 Build 0)  -->
<!DOCTYPE svg PUBLIC "-//W3C//DTD SVG 1.1//EN" "http://www.w3.org/Graphics/SVG/1.1/DTD/svg11.dtd">
<svg version="1.1" id="Capa_1" xmlns="http://www.w3.org/2000/svg" xmlns:xlink="http://www.w3.org/1999/xlink" x="0px" y="0px"
	 viewBox="0 0 5494.3 501" enable-background="new 0 0 5494.3 501" xml:space="preserve">
<g>
	<g>
		<g>
			<path fill="#F4CF71" d="M3692,212.4v20.2l55.4,33.5l55.4-33.5v-20.2H3692z M3794.8,228.1l-47.4,28.7l-47.4-28.7v-7.7h94.7V228.1z
				"/>
		</g>
		<g>
			<polygon fill="#181819" points="3783.8,226.7 3711,226.7 3679.1,148.9 3679.1,71.1 3815.7,71.1 3815.7,148.9 			"/>
			<rect x="3694.2" y="71.1" fill="#FFFFFF" width="15.1" height="77.8"/>
			<rect x="3709.4" y="71.1" fill="#181819" width="15.1" height="77.8"/>
			<rect x="3679.1" y="71.1" fill="#181819" width="15.1" height="77.8"/>
			<rect x="3724.6" y="71.1" fill="#FFFFFF" width="15.1" height="77.8"/>
			<rect x="3739.8" y="71.1" fill="#181819" width="15.1" height="77.8"/>
			<rect x="3755" y="71.1" fill="#FFFFFF" width="15.1" height="77.8"/>
			<rect x="3770.2" y="71.1" fill="#181819" width="15.1" height="77.8"/>
			<rect x="3785.3" y="71.1" fill="#FFFFFF" width="15.1" height="77.8"/>
			<rect x="3800.5" y="71.1" fill="#181819" width="15.1" height="77.8"/>
		</g>
	</g>
	<g>
		<circle fill="#F4B92F" cx="3746.2" cy="353.4" r="75.5"/>
		<path fill="none" d="M3747.4,327.2l17.9,44.3l-18.4-14.5v10.7l24,19.4c1.4,1.2,2.5,1.7,3.8,1.7c2.7,0,5.1-2,5.1-5
			c0-0.5-0.2-1.2-0.5-2l-27.6-66.4c-0.8-1.9-2.4-2.9-4.3-2.9c-0.2,0-0.3,0-0.5,0v16.1L3747.4,327.2z"/>
		<path fill="none" d="M3743,315.3l-30.3,72.9h10.4l12-30l11.8,9.6V357l-8.7-6.8l8.7-21.7v-16.1
			C3745.2,312.6,3743.7,313.5,3743,315.3z"/>
		<polygon fill="#EBEBEB" points="3747.2,296.8 3747.2,407.7 3701.8,395.7 3724,325.6 		"/>
		<polygon fill="#FFC648" points="3738.2,350.2 3746.9,357 3746.9,328.5 		"/>
		<path fill="#FFC648" d="M3735.1,358.1l-12,30h-10.4l30.3-72.9c0.7-1.7,2.2-2.7,3.9-2.9v-27.5c-0.2,0-0.4,0-0.7,0
			c-38.3,0-69.3,31-69.3,69.3c0,38.3,31,69.3,69.3,69.3c0.2,0,0.4,0,0.7,0v-55.9L3735.1,358.1z"/>
		<polygon fill="#FFFFFF" points="3750.1,296.3 3792.5,355 3789.9,388.1 3747.4,399.5 3746.9,296.8 		"/>
		<polygon fill="#F4CF71" points="3747.4,327.2 3746.9,328.5 3746.9,357 3765.3,371.5 		"/>
		<path fill="#F4CF71" d="M3815.6,354.2c0-38.1-30.7-69-68.7-69.3v27.5c0.2,0,0.3,0,0.5,0c1.9,0,3.5,1,4.3,2.9l27.6,66.4
			c0.3,0.8,0.5,1.6,0.5,2c0,2.9-2.4,5-5.1,5c-1.4,0-2.4-0.5-3.8-1.7l-24-19.4v55.9C3784.9,423.2,3815.6,392.3,3815.6,354.2z"/>
		<ellipse fill="#FFF2AC" cx="3747.8" cy="271.4" rx="10.8" ry="10.9"/>
		<path fill="#FFFFFF" d="M3747.8,260.5c-0.1,0-0.3,0-0.4,0v21.8c0.1,0,0.2,0,0.4,0c6,0,10.8-4.9,10.8-10.9
			S3753.8,260.5,3747.8,260.5z"/>
		<path fill="#F4CF71" d="M3747.8,278.9c-4.4,0-8.3-2.2-10.6-5.7c0.9,5.2,5.3,9.1,10.6,9.1s9.8-3.9,10.6-9.1
			C3756.1,276.7,3752.2,278.9,3747.8,278.9z"/>
	</g>
</g>
<g>
	<g>
		<g>
			<g>
				<rect x="1661.6" y="244.2" fill="#F4CF71" width="173.5" height="9.7"/>
				<rect x="1661.6" y="233.9" fill="#F4CF71" width="9.7" height="18.6"/>
				<rect x="1825.4" y="233.9" fill="#F4CF71" width="9.7" height="18.6"/>
				<rect x="1668.6" y="233.9" fill="#F4CF71" width="160.1" height="3.3"/>
			</g>
		</g>
		<g>
			<rect x="1680.1" y="84.8" fill="#1D1C15" width="136.6" height="155.6"/>
			<rect x="1695.2" y="148.5" fill="#FFFFFF" width="15.1" height="92"/>
			<rect x="1725.6" y="148.5" fill="#FFFFFF" width="15.1" height="92"/>
			<rect x="1756" y="148.5" fill="#FFFFFF" width="15.1" height="92"/>
			<rect x="1786.3" y="148.5" fill="#FFFFFF" width="15.1" height="92"/>
		</g>
	</g>
	<g>
		<circle fill="#F4B92F" cx="1746.3" cy="339.7" r="75.5"/>
		<path fill="none" d="M1747.4,313.5l17.9,44.3l-18.4-14.5v10.7l24,19.4c1.4,1.2,2.5,1.7,3.8,1.7c2.7,0,5.1-2,5.1-5
			c0-0.5-0.2-1.2-0.5-2l-27.6-66.4c-0.8-1.9-2.4-2.9-4.3-2.9c-0.2,0-0.3,0-0.5,0v16.1L1747.4,313.5z"/>
		<path fill="none" d="M1743,301.6l-30.3,72.9h10.4l12-30l11.8,9.6v-10.7l-8.7-6.8l8.7-21.7v-16.1
			C1745.2,298.8,1743.8,299.8,1743,301.6z"/>
		<ellipse fill="#FFF2AC" cx="1747.9" cy="257.7" rx="10.8" ry="10.9"/>
		<path fill="#FFFFFF" d="M1747.9,246.8c-0.1,0-0.3,0-0.4,0v21.8c0.1,0,0.2,0,0.4,0c6,0,10.8-4.9,10.8-10.9
			C1758.6,251.7,1753.8,246.8,1747.9,246.8z"/>
		<path fill="#F4CF71" d="M1747.9,265.2c-4.4,0-8.3-2.2-10.6-5.7c0.9,5.2,5.3,9.1,10.6,9.1c5.3,0,9.8-3.9,10.6-9.1
			C1756.1,263,1752.3,265.2,1747.9,265.2z"/>
		<g>
			<path fill="#FFC648" d="M1745.8,309.7c-5,0.1-10.1,0.7-14.8,2c-11.5-7.8-16.6-6.2-16.6-6.2c-3.3,8.3-1.2,14.5-0.6,16
				c-3.9,4.2-6.2,9.6-6.2,16.2c0,23.1,14.1,28.3,27.5,29.8c-1.7,1.5-3.3,4.2-3.8,8.1c-3.4,1.5-12.2,4.2-17.6-5c0,0-3.2-5.8-9.3-6.2
				c0,0-5.9-0.1-0.4,3.7c0,0,4,1.9,6.7,8.8c0,0,3.5,10.8,20.3,7.1c0,5,0.1,9.8,0.1,11.2c0,1.6-1.1,3.5-4.1,2.9
				c-24-8-41.3-30.6-41.3-57.3c0-33.3,26.9-60.3,60.2-60.4v-10.3c-0.2,0-0.4,0-0.7,0c-38.3,0-69.3,31-69.3,69.3
				c0,38.3,31,69.3,69.3,69.3c0.2,0,0.4,0,0.7,0v-15.4l-0.2,0V309.7z M1708.6,367.2c-0.1,0.3-0.6,0.4-1,0.2
				c-0.4-0.2-0.7-0.6-0.5-0.9c0.1-0.3,0.6-0.4,1-0.2C1708.5,366.5,1708.7,366.9,1708.6,367.2z M1711,369.9c-0.3,0.3-0.9,0.1-1.2-0.3
				c-0.4-0.4-0.5-1-0.2-1.3c0.3-0.3,0.8-0.1,1.2,0.3C1711.3,369.1,1711.3,369.6,1711,369.9z M1713.4,373.4c-0.4,0.3-1,0-1.3-0.5
				c-0.4-0.5-0.4-1.2,0-1.4c0.4-0.3,1,0,1.3,0.5C1713.8,372.5,1713.8,373.1,1713.4,373.4z M1716.7,376.7c-0.3,0.4-1,0.3-1.6-0.2
				c-0.5-0.5-0.7-1.2-0.3-1.5c0.3-0.4,1-0.3,1.6,0.2C1716.9,375.7,1717,376.4,1716.7,376.7z M1721.2,378.7c-0.1,0.5-0.8,0.7-1.5,0.5
				c-0.7-0.2-1.1-0.8-1-1.2c0.1-0.5,0.8-0.7,1.5-0.5C1720.9,377.7,1721.3,378.2,1721.2,378.7z M1724.8,380c-0.7,0-1.3-0.4-1.3-0.9
				c0-0.5,0.6-0.9,1.3-0.9c0.7,0,1.3,0.4,1.3,0.9C1726.1,379.5,1725.6,380,1724.8,380z M1729.6,379.4c-0.7,0.1-1.3-0.2-1.4-0.7
				c-0.1-0.5,0.4-1,1.1-1.1c0.7-0.1,1.4,0.2,1.4,0.7C1730.8,378.8,1730.3,379.3,1729.6,379.4z"/>
			<path fill="#F4CF71" d="M1746.8,270.6c-0.2,0-0.4,0-0.7,0v9.8c33.3,0,60.4,27,60.4,60.4c0,26.7-17.3,49.3-41.3,57.3
				c-3.1,0.6-4.1-1.3-4.1-2.9c0-2,0.1-8.5,0.1-16.6c0-5.6-1.9-9.3-4.1-11.2c13.4-1.5,27.6-6.6,27.6-29.8c0-6.6-2.3-12-6.2-16.2
				c0.6-1.5,2.7-7.7-0.6-16c0,0-5.1-1.6-16.6,6.2c-4.8-1.3-9.9-2-14.9-2V393l-0.4-0.1v0.6l0.2-0.1v15.9c0.2,0,0.4,0,0.7,0
				c38.3,0,69.3-31,69.3-69.3C1816.2,301.7,1785.1,270.6,1746.8,270.6z"/>
			<path fill="#F4CF71" d="M1746.3,393v-83.3c-0.1,0-0.1,0-0.2,0c-0.1,0-0.2,0-0.3,0v83.8l0.2,0v-0.6L1746.3,393z"/>
			<path fill="#1D1C15" d="M1746.1,282.3v-1.8c0,0,0,0,0,0c-0.1,0-0.1,0-0.2,0v2L1746.1,282.3z"/>
			<path fill="#C1BFB8" d="M1685.7,340.9c0,26.7,17.3,49.3,41.3,57.3c3,0.6,4.1-1.3,4.1-2.9c0-1.4-0.1-6.2-0.1-11.2
				c-16.8,3.7-20.3-7.1-20.3-7.1c-2.7-7-6.7-8.8-6.7-8.8c-5.5-3.7,0.4-3.7,0.4-3.7c6.1,0.4,9.3,6.2,9.3,6.2c5.4,9.2,14.1,6.6,17.6,5
				c0.5-3.9,2.1-6.6,3.8-8.1c-13.4-1.5-27.5-6.7-27.5-29.8c0-6.6,2.4-12,6.2-16.2c-0.6-1.5-2.7-7.7,0.6-16c0,0,5.1-1.6,16.6,6.2
				c4.7-1.3,9.8-2,14.8-2v-27.1l0.4,0.4v-0.7l-0.2,0.2v-2C1712.7,280.6,1685.7,307.6,1685.7,340.9z"/>
			<path fill="#FFFFFF" d="M1746.3,282.1v27.6c5.1,0,10.2,0.7,14.9,2c11.5-7.8,16.6-6.2,16.6-6.2c3.3,8.3,1.2,14.5,0.6,16
				c3.9,4.2,6.2,9.6,6.2,16.2c0,23.2-14.1,28.3-27.6,29.8c2.2,1.9,4.1,5.5,4.1,11.2c0,8.1-0.1,14.6-0.1,16.6c0,1.6,1.1,3.5,4.1,2.9
				c24-8,41.3-30.6,41.3-57.3c0-33.3-27.2-60.4-60.5-60.4v2L1746.3,282.1z"/>
			<path fill="#C1BFB8" d="M1746.1,282.3v0.7l-0.4-0.4v27.1c0.1,0,0.2,0,0.3,0c0.1,0,0.1,0,0.2,0v-27.6L1746.1,282.3z"/>
			<path fill="#C1BFB8" d="M1708.1,366.3c-0.4-0.2-0.9-0.1-1,0.2c-0.1,0.3,0.1,0.7,0.5,0.9c0.4,0.2,0.9,0.1,1-0.2
				C1708.7,366.9,1708.5,366.5,1708.1,366.3z"/>
			<path fill="#C1BFB8" d="M1709.6,368.4c-0.3,0.3-0.2,0.8,0.2,1.3c0.4,0.4,0.9,0.5,1.2,0.3c0.3-0.3,0.2-0.8-0.2-1.3
				C1710.5,368.2,1709.9,368.1,1709.6,368.4z"/>
			<path fill="#C1BFB8" d="M1712.1,371.4c-0.4,0.3-0.4,0.9,0,1.4c0.4,0.5,1,0.8,1.3,0.5c0.4-0.3,0.4-0.9,0-1.5
				C1713.1,371.4,1712.5,371.2,1712.1,371.4z"/>
			<path fill="#C1BFB8" d="M1714.8,375c-0.3,0.4-0.2,1.1,0.3,1.5c0.5,0.5,1.2,0.6,1.6,0.2c0.4-0.4,0.2-1.1-0.3-1.5
				C1715.8,374.7,1715.1,374.6,1714.8,375z"/>
			<path fill="#C1BFB8" d="M1720.2,377.5c-0.7-0.2-1.4,0-1.5,0.5c-0.1,0.5,0.3,1,1,1.2c0.7,0.2,1.4,0,1.5-0.5
				C1721.3,378.2,1720.9,377.7,1720.2,377.5z"/>
			<path fill="#C1BFB8" d="M1724.8,378.2c-0.7,0-1.3,0.4-1.3,0.9c0,0.5,0.6,0.9,1.3,0.9c0.7,0,1.3-0.4,1.3-0.9
				C1726.1,378.6,1725.5,378.2,1724.8,378.2z"/>
			<path fill="#C1BFB8" d="M1729.3,377.6c-0.7,0.1-1.2,0.6-1.1,1.1c0.1,0.5,0.7,0.8,1.4,0.7c0.7-0.1,1.2-0.6,1.1-1.1
				C1730.6,377.8,1730,377.5,1729.3,377.6z"/>
		</g>
	</g>
</g>
<g>
	<g>
		<g>
			<path fill="#F4CF71" d="M194.6,205.5v20.2l55.4,33.5l55.4-33.5v-20.2H194.6z M297.4,221.3L250,249.9l-47.4-28.7v-7.7h94.7V221.3z
				"/>
		</g>
		<g>
			<polygon fill="#395DA1" points="286.4,220 213.6,220 181.7,142.3 181.7,64.5 318.3,64.5 318.3,142.3 			"/>
			<polygon fill="#729CCF" points="213.6,220 286.4,220 286.5,219.7 286.5,64.5 213.5,64.5 213.5,219.7 			"/>
			<g>
				<polygon fill="#FFFFFF" points="202.5,192.7 213.6,219.7 213.6,64.5 202.5,64.5 				"/>
				<polygon fill="#FFFFFF" points="297.5,64.5 286.4,64.5 286.4,220 297.5,193 				"/>
			</g>
			<g>
				<polygon fill="#FFFFFF" points="270.6,116.9 272.3,120.3 276,120.8 273.3,123.4 273.9,127 270.6,125.3 267.4,127 268,123.4 
					265.3,120.8 269,120.3 				"/>
				<polygon fill="#FFFFFF" points="229.4,116.9 231,120.3 234.7,120.8 232,123.4 232.6,127 229.4,125.3 226.1,127 226.7,123.4 
					224,120.8 227.7,120.3 				"/>
			</g>
			<polygon fill="#FFFFFF" points="250,138.7 255.7,150.2 268.5,152.1 259.2,161.1 261.4,173.8 250,167.8 238.6,173.8 240.8,161.1 
				231.5,152.1 244.3,150.2 			"/>
		</g>
	</g>
	<g>
		<g>
			<rect x="187.9" y="252.6" fill="#F4B92F" width="128" height="35.5"/>
			<rect x="247.9" y="255.6" fill="#F4CF71" width="62.5" height="27.5"/>
			<g>
				<path fill="#F4B92F" d="M252.3,435.5l-51-14.2L190,293.9h124.9l-11.4,127.5L252.3,435.5z M252.3,435.5"/>
				<path fill="#F4CF71" d="M293.7,413.2l9.7-108.9h-51.1v120.4L293.7,413.2z M293.7,413.2"/>
				<g>
					<polygon fill="#FFFFFF" points="252,334.3 215.2,349.7 216.4,364.9 252,349.6 290,333.4 291.5,317.9 					"/>
					<linearGradient id="SVGID_1_" gradientUnits="userSpaceOnUse" x1="233.594" y1="364.8688" x2="233.594" y2="334.3066">
						<stop  offset="0.3865" style="stop-color:#D7D8DC;stop-opacity:0"/>
						<stop  offset="1" style="stop-color:#D7D8DC"/>
					</linearGradient>
					<polygon fill="url(#SVGID_1_)" points="215.2,349.7 216.4,364.9 252,349.6 252,334.3 					"/>
					<linearGradient id="SVGID_2_" gradientUnits="userSpaceOnUse" x1="271.7797" y1="349.6255" x2="271.7797" y2="317.8576">
						<stop  offset="0.3865" style="stop-color:#D7D8DC;stop-opacity:0"/>
						<stop  offset="1" style="stop-color:#D7D8DC"/>
					</linearGradient>
					<polygon fill="url(#SVGID_2_)" points="291.5,317.9 252,334.3 252,349.6 290,333.4 					"/>
					<linearGradient id="SVGID_3_" gradientUnits="userSpaceOnUse" x1="215.2132" y1="378.5002" x2="288.6158" y2="378.5002">
						<stop  offset="0" style="stop-color:#EFF0EE"/>
						<stop  offset="1" style="stop-color:#FFFFFF"/>
					</linearGradient>
					<polygon fill="url(#SVGID_3_)" points="215.2,349.7 216.4,364.9 271.1,365 269.9,385.3 251.9,390.4 234.6,386 233.6,373.4 
						217.5,373.4 219.6,397.7 252.1,407.3 284.4,397.9 288.6,349.7 					"/>
					<g opacity="5.000000e-002">
						<polygon fill="#211915" points="252,349.7 215.2,349.7 216.4,364.9 252,365 						"/>
						<polygon fill="#211915" points="252,390.3 251.9,390.4 234.6,386 233.5,373.4 217.4,373.4 219.5,397.7 252,407.3 						"/>
					</g>
					<linearGradient id="SVGID_4_" gradientUnits="userSpaceOnUse" x1="211.836" y1="325.6345" x2="291.528" y2="325.6345">
						<stop  offset="0" style="stop-color:#EFF0EE"/>
						<stop  offset="1" style="stop-color:#FFFFFF"/>
					</linearGradient>
					<polygon fill="url(#SVGID_4_)" points="211.8,317.9 291.5,317.9 290,333.4 213.8,333.4 					"/>
					<polygon opacity="5.000000e-002" fill="#211915" points="252,317.9 211.8,317.9 213.8,333.4 252,333.4 					"/>
				</g>
			</g>
			<g>
				<circle fill="#FFF2AC" cx="251.9" cy="292.8" r="9.5"/>
				<path fill="#FFFFFF" d="M251.9,283.3c-0.1,0-0.2,0-0.3,0v18.9c0.1,0,0.2,0,0.3,0c5.2,0,9.5-4.2,9.5-9.5S257.1,283.3,251.9,283.3
					z"/>
				<path fill="#F4CF71" d="M251.9,299.3c-3.9,0-7.3-1.9-9.3-4.9c0.8,4.5,4.7,7.9,9.3,7.9c4.7,0,8.6-3.4,9.3-7.9
					C259.2,297.3,255.7,299.3,251.9,299.3z"/>
			</g>
		</g>
		<g>
			<polygon fill="#FFFFFF" points="220.8,275.3 220.8,267.1 232.8,267.1 232.8,258.1 211.8,258.1 211.8,283.5 232.8,283.5 
				232.8,275.3 			"/>
			<path fill="#FFFFFF" d="M254.4,267.1h8.4v-9h-21c0,0,0,4.5,0,9c2.8,2.8,4.3,4.2,8.3,8.2c-2.4,0-8.3,0-8.3,0v8.2h21v-8.2
				L254.4,267.1z"/>
			<path fill="#FFFFFF" d="M284.2,267.1h8.4v-9h-21c0,0,0,4.5,0,9c2.8,2.8,4.3,4.2,8.3,8.2c-2.4,0-8.3,0-8.3,0v8.2h21v-8.2
				L284.2,267.1z"/>
		</g>
	</g>
</g>
<g>
	<g>
		<g>
			<path fill="#F4CF71" d="M1192.2,200.1v20.2l55.4,33.5l55.4-33.5v-20.2H1192.2z M1294.9,215.9l-47.4,28.7l-47.4-28.7v-7.7h94.7
				V215.9z"/>
		</g>
		<g>
			<polygon fill="#4E8EF7" points="1283.9,214.5 1211.2,214.5 1179.3,136.7 1179.3,58.9 1315.8,58.9 1315.8,136.7 			"/>
			<rect x="1194.4" y="58.9" fill="#FFFFFF" width="15.1" height="77.8"/>
			<rect x="1209.6" y="58.9" fill="#4E8EF7" width="15.1" height="77.8"/>
			<rect x="1179.3" y="58.9" fill="#4E8EF7" width="15.1" height="77.8"/>
			<rect x="1224.8" y="58.9" fill="#FFFFFF" width="15.1" height="77.8"/>
			<rect x="1240" y="58.9" fill="#4E8EF7" width="15.1" height="77.8"/>
			<rect x="1255.1" y="58.9" fill="#FFFFFF" width="15.1" height="77.8"/>
			<rect x="1270.3" y="58.9" fill="#4E8EF7" width="15.1" height="77.8"/>
			<rect x="1285.5" y="58.9" fill="#FFFFFF" width="15.1" height="77.8"/>
			<rect x="1300.7" y="58.9" fill="#4E8EF7" width="15.1" height="77.8"/>
		</g>
	</g>
	<g>
		<path fill="#F4B92F" d="M1259.5,266.1c0,1.8-1.5,3.2-3.2,3.2h-15.6c-1.8,0-3.2-1.5-3.2-3.2l0,0c0-1.8,1.5-3.2,3.2-3.2h15.6
			C1258,262.8,1259.5,264.3,1259.5,266.1L1259.5,266.1z"/>
		<g>
			<circle fill="#FFF2AC" cx="1248.4" cy="254.1" r="11.1"/>
			<path fill="#FFFFFF" d="M1248.4,243.1c-0.1,0-0.3,0-0.4,0v22.1c0.1,0,0.3,0,0.4,0c6.1,0,11.1-5,11.1-11.1
				C1259.5,248,1254.5,243.1,1248.4,243.1z"/>
			<path fill="#F4CF71" d="M1248.4,261.7c-4.5,0-8.5-2.3-10.9-5.7c0.9,5.2,5.4,9.2,10.9,9.2c5.5,0,10-4,10.9-9.2
				C1256.9,259.5,1252.9,261.7,1248.4,261.7z"/>
		</g>
		<circle fill="#F4B92F" cx="1248.9" cy="354.1" r="87"/>
		<circle fill="#F4B92F" cx="1248.9" cy="354.1" r="52.5"/>
		<circle fill="#FFF2AC" cx="1249.6" cy="355.4" r="27.1"/>
		<path fill="#FFF2AC" d="M1304.9,309.5c0-5.1-4.2-9.3-9.3-9.3c-2.3,0-4.5,0.9-6.1,2.3c-11.1-8.4-24.9-13.3-39.8-13.3
			c-36.6,0-66.3,29.7-66.3,66.3c0,36.6,29.7,66.3,66.3,66.3s66.3-29.7,66.3-66.3c0-14.9-5-28.7-13.3-39.8
			C1304,313.9,1304.9,311.8,1304.9,309.5L1304.9,309.5L1304.9,309.5z M1249.6,419.5c-35.3,0-64.1-28.7-64.1-64.1
			s28.7-64.1,64.1-64.1c14.4,0,27.6,4.8,38.3,12.8c-1.1,1.5-1.7,3.4-1.7,5.4c0,5.1,4.2,9.3,9.3,9.3c2,0,3.9-0.6,5.4-1.7
			c8,10.7,12.8,24,12.8,38.3C1313.7,390.7,1285,419.5,1249.6,419.5L1249.6,419.5L1249.6,419.5z"/>
	</g>
</g>
<g>
	<g>
		<g>
			<g>
				<path fill="#F4CF71" d="M2751,261.2c-26.3,0-48-14.5-50.6-33.8l-0.6-4.5h102.4l-0.6,4.5C2799.1,246.7,2777.3,261.2,2751,261.2z
					 M2709.5,230.9c4.7,12.8,21.9,22.3,41.6,22.3c19.7,0,36.8-9.5,41.6-22.3H2709.5z"/>
			</g>
		</g>
		<g>
			<polygon fill="#343434" points="2787,235.7 2714.3,235.7 2682.4,157.9 2682.4,80.1 2818.9,80.1 2818.9,157.9 			"/>
			<polygon fill="#343434" points="2714.3,235.7 2787,235.7 2787.1,235.4 2787.1,80.1 2714.1,80.1 2714.1,235.4 			"/>
			<g>
				<polygon fill="#FFFFFF" points="2703.1,208.3 2714.2,235.4 2714.2,80.1 2703.1,80.1 				"/>
				<polygon fill="#FFFFFF" points="2798.2,80.1 2787.1,80.1 2787.1,235.7 2798.2,208.6 				"/>
			</g>
			<g>
				<polygon fill="#FFFFFF" points="2771.3,132.6 2772.9,135.9 2776.6,136.5 2773.9,139.1 2774.6,142.7 2771.3,141 2768,142.7 
					2768.6,139.1 2766,136.5 2769.6,135.9 				"/>
				<polygon fill="#FFFFFF" points="2730,132.6 2731.6,135.9 2735.3,136.5 2732.7,139.1 2733.3,142.7 2730,141 2726.7,142.7 
					2727.3,139.1 2724.7,136.5 2728.4,135.9 				"/>
			</g>
			<polygon fill="#FFFFFF" points="2750.6,154.3 2756.4,165.9 2769.1,167.8 2759.9,176.8 2762.1,189.5 2750.6,183.5 2739.2,189.5 
				2741.4,176.8 2732.2,167.8 2744.9,165.9 			"/>
		</g>
	</g>
	<g>
		<circle fill="#F4B92F" cx="2747.3" cy="344.4" r="75.5"/>
		<path fill="none" d="M2748.5,318.2l17.9,44.3L2748,348v10.7l24,19.4c1.4,1.2,2.5,1.7,3.8,1.7c2.7,0,5.1-2,5.1-5
			c0-0.5-0.2-1.2-0.5-2l-27.6-66.4c-0.8-1.9-2.4-2.9-4.3-2.9c-0.2,0-0.3,0-0.5,0v16.1L2748.5,318.2z"/>
		<path fill="none" d="M2744.1,306.3l-30.3,72.9h10.4l12-30l11.8,9.6V348l-8.7-6.8l8.7-21.7v-16.1
			C2746.3,303.5,2744.8,304.5,2744.1,306.3z"/>
		<polygon fill="#FFC648" points="2748.3,287.8 2748.3,398.7 2702.8,386.7 2725,316.6 		"/>
		<polygon fill="#FFC648" points="2739.3,341.1 2748,348 2748,319.5 		"/>
		<path fill="#FFC648" d="M2736.1,349.1l-12,30h-10.4l30.3-72.9c0.7-1.7,2.2-2.7,3.9-2.9v-27.5c-0.2,0-0.4,0-0.7,0
			c-38.3,0-69.3,31-69.3,69.3c0,38.3,31,69.3,69.3,69.3c0.2,0,0.4,0,0.7,0v-55.9L2736.1,349.1z"/>
		<polygon fill="#F4CF71" points="2751.2,287.2 2793.6,345.9 2790.9,379.1 2748.5,390.5 2748,287.8 		"/>
		<path fill="#F4CF71" d="M2816.7,345.2c0-38.1-30.7-69-68.7-69.3v27.5c0.2,0,0.3,0,0.5,0c1.9,0,3.5,1,4.3,2.9l27.6,66.4
			c0.3,0.8,0.5,1.6,0.5,2c0,2.9-2.4,5-5.1,5c-1.4,0-2.4-0.5-3.8-1.7l-24-19.4v55.9C2786,414.2,2816.7,383.3,2816.7,345.2z"/>
		<ellipse fill="#FFF2AC" cx="2748.9" cy="262.4" rx="10.8" ry="10.9"/>
		<path fill="#FFFFFF" d="M2748.9,251.5c-0.1,0-0.3,0-0.4,0v21.8c0.1,0,0.2,0,0.4,0c6,0,10.8-4.9,10.8-10.9
			S2754.8,251.5,2748.9,251.5z"/>
		<path fill="#F4CF71" d="M2748.9,269.9c-4.4,0-8.3-2.2-10.6-5.7c0.9,5.2,5.3,9.1,10.6,9.1c5.3,0,9.8-3.9,10.6-9.1
			C2757.2,267.7,2753.3,269.9,2748.9,269.9z"/>
		<g>
			<path fill="none" d="M2759.1,345.2c0,6.2-4.8,11.4-10.9,11.9v14.3c14-0.7,25.1-12.2,25.1-26.4c0-14.2-11.2-25.7-25.1-26.4v14.6
				C2754.4,333.8,2759.1,338.9,2759.1,345.2z"/>
			<path fill="#FFFFFF" d="M2759.1,345.2c0-6.2-4.8-11.4-10.9-11.9v23.8C2754.4,356.5,2759.1,351.4,2759.1,345.2z"/>
			<path fill="#FFFFFF" d="M2797.7,345.2c0-27.5-22.1-49.9-49.4-50.5v24c14,0.7,25.1,12.2,25.1,26.4c0,14.2-11.2,25.7-25.1,26.4
				v24.3C2775.6,395.1,2797.7,372.7,2797.7,345.2z"/>
			<path fill="#EBEBEB" d="M2747.2,333.2c-6.6,0-12,5.4-12,12s5.4,12,12,12c0.4,0,0.8,0,1.1-0.1v-23.8
				C2747.9,333.2,2747.5,333.2,2747.2,333.2z"/>
			<path fill="#EBEBEB" d="M2698.2,332.5c0,0.1-0.1,0.4-0.1,0.6c0,1.3,1,2.5,2.5,2.5h20.4c1,0,1.7-0.6,2.2-1.4
				c4.2-9.2,13.4-15.4,24-15.4c0.4,0,0.8,0,1.3,0v-24c-0.4,0-0.7,0-1.1,0C2723.6,294.7,2703.9,310.8,2698.2,332.5z"/>
			<path fill="#EBEBEB" d="M2747,371.5c-10.7,0-19.8-6.4-24-15.3c-0.4-1-1.2-1.6-2.2-1.6h-20.4c-1.3,0-2.5,1-2.5,2.5
				c0,0.1,0,0.4,0.1,0.6c5.6,21.9,25.4,38.1,48.9,38.1c0.4,0,0.7,0,1.1,0v-24.3C2747.9,371.4,2747.5,371.5,2747,371.5z"/>
		</g>
	</g>
</g>
<g>
	<g>
		<g>
			<g>
				<rect x="3160" y="241.3" fill="#F4CF71" width="173.5" height="9.7"/>
				<rect x="3160" y="231" fill="#F4CF71" width="9.7" height="18.6"/>
				<rect x="3323.8" y="231" fill="#F4CF71" width="9.7" height="18.6"/>
				<rect x="3167" y="231" fill="#F4CF71" width="160.1" height="3.3"/>
			</g>
		</g>
		<g>
			<rect x="3178.5" y="81.9" fill="#F35045" width="136.6" height="155.6"/>
			<g>
				<g>
					<polygon fill="#FFFFFF" points="3208.4,217.2 3210,220.6 3213.7,221.1 3211.1,223.7 3211.7,227.3 3208.4,225.6 3205.1,227.3 
						3205.7,223.7 3203.1,221.1 3206.8,220.6 					"/>
					<polygon fill="#FFFFFF" points="3227.6,217.2 3229.2,220.6 3232.9,221.1 3230.2,223.7 3230.9,227.3 3227.6,225.6 3224.3,227.3 
						3224.9,223.7 3222.3,221.1 3225.9,220.6 					"/>
					<polygon fill="#FFFFFF" points="3246.8,217.2 3248.4,220.6 3252.1,221.1 3249.4,223.7 3250,227.3 3246.8,225.6 3243.5,227.3 
						3244.1,223.7 3241.4,221.1 3245.1,220.6 					"/>
					<polygon fill="#FFFFFF" points="3265.9,217.2 3267.6,220.6 3271.2,221.1 3268.6,223.7 3269.2,227.3 3265.9,225.6 3262.6,227.3 
						3263.3,223.7 3260.6,221.1 3264.3,220.6 					"/>
					<polygon fill="#FFFFFF" points="3285.1,217.2 3286.7,220.6 3290.4,221.1 3287.8,223.7 3288.4,227.3 3285.1,225.6 3281.8,227.3 
						3282.5,223.7 3279.8,221.1 3283.5,220.6 					"/>
				</g>
			</g>
			<rect x="3193.6" y="81.9" fill="#FFFFFF" width="15.1" height="92"/>
			<rect x="3208.8" y="81.9" fill="#F35045" width="15.1" height="92"/>
			<rect x="3178.5" y="81.9" fill="#F35045" width="15.1" height="92"/>
			<rect x="3224" y="81.9" fill="#FFFFFF" width="15.1" height="92"/>
			<rect x="3239.2" y="81.9" fill="#F35045" width="15.1" height="92"/>
			<rect x="3254.3" y="81.9" fill="#FFFFFF" width="15.1" height="92"/>
			<rect x="3269.5" y="81.9" fill="#F35045" width="15.1" height="92"/>
			<rect x="3284.7" y="81.9" fill="#FFFFFF" width="15.1" height="92"/>
			<rect x="3299.9" y="81.9" fill="#F35045" width="15.1" height="92"/>
			<g>
				<rect x="3182.6" y="81.9" fill="#FFFFFF" width="3.2" height="155.6"/>
				<rect x="3307.7" y="81.9" fill="#FFFFFF" width="3.2" height="155.6"/>
			</g>
		</g>
	</g>
	<g>
		<path fill="#F4B92F" d="M3318.5,329.5v-31.1c0-0.9,0-1.8-0.1-2.7v-2.1h-0.3c-0.9-5.6-3.5-10.5-7.7-14.7
			c-5.4-5.4-11.9-8.1-19.5-8.1h-92.1c-7.6,0-14.1,2.7-19.5,8.1c-3.1,3.1-5.3,6.6-6.6,10.4l-1.3,4.3v1.5c-0.1,0.7-0.1,1.4-0.2,2.1
			c0,0.1,0.1,0.2,0.2,0.3v16c-0.1-0.1-0.1-0.3-0.2-0.4v77.4c0,7.6,2.7,14.1,8.1,19.5c5.4,5.4,11.9,8.1,19.5,8.1h92.1
			c7.6,0,14.1-2.7,19.5-8.1c5.4-5.4,8.1-11.9,8.1-19.5v-9.1c0,0-0.1,0-0.1,0v-12.4c0,0.1,0.1,0.1,0.1,0.2v-24.4c0,0-0.1,0-0.1,0v-6
			c0,0,0.1,0,0.1,0v-2.7c0,0-0.1-0.1-0.1-0.2v-6.6C3318.5,329.4,3318.5,329.4,3318.5,329.5z M3301.8,387.4v-0.7h2
			C3303.2,387,3302.5,387.2,3301.8,387.4z"/>
		<path fill="#EBEBEB" d="M3307.2,331.9v-26.4c0-0.8,0-1.5-0.1-2.3v-1.8h-0.2c-0.8-4.7-3-8.9-6.6-12.5c-4.6-4.6-10.1-6.9-16.6-6.9
			h-78.2c-6.5,0-12,2.3-16.6,6.9c-2.6,2.6-4.5,5.6-5.6,8.8l-1.1,3.7v1.3c-0.1,0.6-0.1,1.2-0.1,1.8c0,0.1,0.1,0.2,0.1,0.3v13.6
			c-0.1-0.1-0.1-0.2-0.2-0.3v65.7c0,6.5,2.3,12,6.9,16.6c4.6,4.6,10.1,6.9,16.6,6.9h78.2c6.5,0,12-2.3,16.6-6.9
			c4.6-4.6,6.9-10.1,6.9-16.6V376c0,0-0.1,0-0.1,0v-10.5c0,0,0.1,0.1,0.1,0.1V345c0,0-0.1,0-0.1,0v-5.1c0,0,0.1,0,0.1,0v-2.3
			c0,0-0.1-0.1-0.1-0.1v-5.6C3307.2,331.9,3307.2,331.9,3307.2,331.9z M3293,381.1v-0.6h1.7C3294.2,380.7,3293.6,380.9,3293,381.1z"
			/>
		<g>
			<path fill="#F4CF71" d="M3288.3,349.5l-41.5,10.8c0,0,12.7,22,13.7,23.4c1,1.4,1.6,1.3,2.3,1s39.9-13.5,41.1-14
				c1.2-0.4,0.8-0.8,0.4-1.4c-0.4-0.6-13.4-18.3-14.1-19.3S3289.3,349.2,3288.3,349.5z"/>
			<path fill="#F4CF71" d="M3307.2,365.7V345c-4.7,1.2-10.6,2.8-12.9,3.4C3297.8,353.1,3303.3,360.4,3307.2,365.7z"/>
			<path fill="#F4CF71" d="M3294.3,322.9c-0.6,0.1-14.8,2.7-15.7,2.8c-0.9,0.1-0.6,0.6-0.2,1.1l12.4,17.1c0,0,15.2-3.8,16.2-4
				c0.1,0,0.1,0,0.2-0.1v-2.3c-2.8-3.5-10.3-13.1-11-14C3295.5,322.5,3294.9,322.7,3294.3,322.9z"/>
			<path fill="#F4CF71" d="M3300.3,288.9c-4.6-4.6-10.1-6.9-16.6-6.9h-37.4v72.5l39.9-9.6c-2.4-3.3-13-18.5-14.1-19.9
				c-1.2-1.6,0-2.4,1.9-2.7c1.9-0.3,18.2-3.1,19.5-3.3c1.4-0.2,2.5-0.7,4.8,2c1.2,1.4,5.1,6.3,8.8,10.9v-26.4
				C3307.2,299,3304.9,293.5,3300.3,288.9z"/>
			<path fill="#F4CF71" d="M3283.8,407.2c6.5,0,12-2.3,16.6-6.9c4.6-4.6,6.9-10.1,6.9-16.6V376c-9.6,3.5-40.5,14.6-42.9,15.3
				c-3.6,1.1-5.2,1.6-7.5-1.6c-1.2-1.7-6-10.2-10.4-18.1v35.6H3283.8z"/>
			<path fill="#FFC648" d="M3205.5,282c-6.5,0-12,2.3-16.6,6.9c-2.6,2.6-4.5,5.6-5.6,8.8c7.7-0.6,19.8-1.6,21.9-1.7
				c3.1-0.1,3.3,0.6,4.7,2.6l33.8,56.5l2.6-0.6V282H3205.5z"/>
			<path fill="#FFC648" d="M3211.5,369.4c-4.5,1.1-6.5-1.6-7.2-3.3c-0.5-1.2-13.8-29.7-22.2-48.1v65.7c0,6.5,2.3,12,6.9,16.6
				c4.6,4.6,10.1,6.9,16.6,6.9h40.9v-35.6c-2-3.6-4-7.1-5.4-9.8C3232.2,364.1,3216.1,368.3,3211.5,369.4z"/>
			<path fill="#FFC648" d="M3205.8,300.6c-0.3-0.5-0.2-0.7-1-0.6c-0.7,0-18.4,1.6-22.4,2c-0.1,0.8-0.2,1.7-0.2,2.6
				c4.1,8.5,28,57.6,28.1,58c0.1,0.4,0.1,0.6,1.4,0.3c1.3-0.3,25.1-6,25.6-6.1c0.5-0.1,0.8-0.4,0.3-1.3
				C3237,354.5,3205.8,300.6,3205.8,300.6z"/>
		</g>
		<g>
			<circle fill="#FFF2AC" cx="3242.5" cy="262.3" r="14.2"/>
			<path fill="#FFFFFF" d="M3242.5,248.1c-0.2,0-0.3,0-0.5,0v28.4c0.2,0,0.3,0,0.5,0c7.9,0,14.2-6.4,14.2-14.2
				C3256.7,254.5,3250.3,248.1,3242.5,248.1z"/>
			<path fill="#F4CF71" d="M3242.5,272.1c-5.8,0-10.9-2.9-14-7.4c1.1,6.7,7,11.8,14,11.8s12.9-5.1,14-11.8
				C3253.4,269.2,3248.3,272.1,3242.5,272.1z"/>
		</g>
	</g>
</g>
<g>
	<g>
		<g>
			<path fill="#F4CF71" d="M2190.9,221.1v20.2l55.4,33.5l55.4-33.5v-20.2H2190.9z M2293.7,236.8l-47.4,28.7l-47.4-28.7v-7.7h94.7
				V236.8z"/>
		</g>
		<g>
			<polygon fill="#53C1DE" points="2282.7,235.6 2209.9,235.6 2178,157.8 2178,80 2314.6,80 2314.6,157.8 			"/>
			<polygon fill="#53C1DE" points="2209.9,235.6 2282.7,235.6 2282.8,235.3 2282.8,80 2209.8,80 2209.8,235.3 			"/>
			<g>
				<polygon fill="#FFFFFF" points="2198.7,208.2 2209.8,235.3 2209.8,80 2198.7,80 				"/>
				<polygon fill="#FFFFFF" points="2293.8,80 2282.7,80 2282.7,235.6 2293.8,208.5 				"/>
			</g>
			<g>
				<polygon fill="#FFFFFF" points="2266.9,132.5 2268.6,135.8 2272.2,136.3 2269.6,138.9 2270.2,142.6 2266.9,140.9 2263.6,142.6 
					2264.3,138.9 2261.6,136.3 2265.3,135.8 				"/>
				<polygon fill="#FFFFFF" points="2225.6,132.5 2227.3,135.8 2230.9,136.3 2228.3,138.9 2228.9,142.6 2225.6,140.9 2222.4,142.6 
					2223,138.9 2220.3,136.3 2224,135.8 				"/>
			</g>
			<polygon fill="#FFFFFF" points="2246.3,154.2 2252,165.8 2264.8,167.7 2255.5,176.7 2257.7,189.4 2246.3,183.4 2234.9,189.4 
				2237,176.7 2227.8,167.7 2240.6,165.8 			"/>
		</g>
	</g>
	<g>
		<g>
			<path fill="#F4B92F" d="M2166.9,347c0,12.2,11.9,23.6,30.8,30.1c-3.8,18.9-0.7,34.2,9.6,40.1c10.6,6.1,26.4,1.9,41.3-11.2
				c14.6,12.6,29.3,17.5,39.6,11.5c10.6-6.1,13.8-22.4,9.9-41.9c19.6-6.5,30.6-16.2,30.6-28.6c0-11.9-12-22.3-30.5-28.7
				c4.2-20.3,0.6-35.2-10.1-41.4c-10.3-6-25.3-0.8-40.1,12.1c-15.4-13.7-30.2-17.9-40.9-11.7c-10.3,6-13.3,21.5-9.5,40.8
				C2179.5,324.5,2166.9,335.1,2166.9,347z"/>
			<g>
				<path fill="#FFFFFF" d="M2294.3,324.6c-1.5-0.5-3-1-4.6-1.5c0.3-1.1,0.5-2.1,0.7-3.2c3.5-17,1.2-30.7-6.6-35.2
					c-7.5-4.3-19.8,0.2-32.1,11c-1.2,1-2.4,2.1-3.6,3.3c-0.1-0.1-0.3-0.3-0.4-0.4V396c0.2-0.2,0.4-0.4,0.6-0.6
					c1.3,1.3,2.6,2.4,3.9,3.5c12.2,10.5,24.3,14.8,31.7,10.4c7.7-4.5,10.2-18,7-34.4c-0.2-1.3-0.5-2.5-0.9-3.8
					c0.9-0.3,1.8-0.5,2.7-0.8c16.5-5.5,27.2-14.3,27.2-23.3C2319.9,338.4,2309.8,330,2294.3,324.6z"/>
				<path fill="#C1BFB8" d="M2245.7,296.9c-13-11.5-26-16.4-33.8-11.9c-7.5,4.3-9.7,17.2-6.6,33.3c0.3,1.6,0.7,3.1,1.1,4.8
					c-1.8,0.5-3.6,1.1-5.3,1.7c-15.2,5.3-24.9,13.6-24.9,22.2c0,8.9,10.4,17.8,26.3,23.3c1.3,0.4,2.5,0.8,3.9,1.2
					c-0.4,1.7-0.8,3.5-1.1,5.1c-3,15.8-0.7,28.4,6.8,32.7c7.7,4.5,20.7-0.1,33.3-11.1c0.8-0.7,1.6-1.4,2.4-2.2v-97.3
					C2247,298.1,2246.3,297.4,2245.7,296.9z"/>
			</g>
			<path fill="#F4CF71" d="M2290.7,364.5c-0.8,0.3-1.6,0.5-2.4,0.8c-1.8-5.8-4.3-11.9-7.3-18.2c2.9-6.2,5.2-12.2,7-17.9
				c1.5,0.4,2.9,0.9,4.3,1.3c13.3,4.6,21.4,11.3,21.4,16.6C2313.7,352.6,2305,359.8,2290.7,364.5L2290.7,364.5L2290.7,364.5z"/>
			<path fill="#F4CF71" d="M2284.8,376.2c1.4,7.3,1.6,13.8,0.7,19c-0.9,4.6-2.6,7.7-4.7,8.9c-4.5,2.6-14.2-0.8-24.7-9.8
				c-1.2-1-2.4-2.1-3.6-3.3c4.1-4.4,8.1-9.6,12-15.3c6.9-0.6,13.5-1.6,19.5-3C2284.3,373.9,2284.6,375.1,2284.8,376.2L2284.8,376.2
				L2284.8,376.2z"/>
			<path fill="#FFC648" d="M2225.1,403.6c-4.4,1.6-8,1.6-10.1,0.4c-4.5-2.6-6.4-12.7-3.8-26.3c0.3-1.6,0.6-3.1,1-4.8
				c5.9,1.3,12.4,2.2,19.4,2.8c4,5.6,8.1,10.7,12.3,15.2c-0.9,0.9-1.8,1.7-2.7,2.5C2235.6,398.4,2230.1,401.9,2225.1,403.6
				L2225.1,403.6L2225.1,403.6z"/>
			<path fill="#FFC648" d="M2204.4,364.5c-7-2.4-12.8-5.5-16.8-8.9c-3.6-3.1-5.4-6.1-5.4-8.5c0-5.2,7.8-11.9,20.8-16.4
				c1.6-0.6,3.2-1.1,4.9-1.6c1.8,5.9,4.2,12,7,18.2c-2.9,6.3-5.3,12.5-7.1,18.4C2206.7,365.2,2205.5,364.9,2204.4,364.5
				L2204.4,364.5L2204.4,364.5z"/>
			<path fill="#FFC648" d="M2211.3,317.1c-2.7-13.8-0.9-24.2,3.6-26.8c4.8-2.8,15.4,1.2,26.7,11.1c0.7,0.6,1.4,1.3,2.2,2
				c-4.2,4.5-8.3,9.6-12.2,15.2c-6.8,0.6-13.2,1.6-19.2,3C2212,320.1,2211.6,318.6,2211.3,317.1L2211.3,317.1L2211.3,317.1z"/>
			<path fill="#F4CF71" d="M2273.3,332.5c-1.4-2.5-2.9-4.9-4.4-7.2c4.6,0.6,9,1.3,13.1,2.3c-1.2,4-2.8,8.1-4.6,12.4
				C2276.2,337.5,2274.8,335,2273.3,332.5L2273.3,332.5L2273.3,332.5z"/>
			<path fill="#F4CF71" d="M2248.1,307.8c2.8,3.1,5.7,6.5,8.5,10.2c-2.8-0.1-5.7-0.2-8.5-0.2c-2.8,0-5.7,0.1-8.5,0.2
				C2242.3,314.4,2245.2,310.9,2248.1,307.8L2248.1,307.8L2248.1,307.8z"/>
			<path fill="#FFC648" d="M2222.6,332.5c-1.4,2.5-2.8,4.9-4.1,7.4c-1.8-4.2-3.3-8.4-4.6-12.4c4.1-0.9,8.5-1.7,13-2.2
				C2225.5,327.6,2224,330,2222.6,332.5L2222.6,332.5L2222.6,332.5z"/>
			<path fill="#FFC648" d="M2227.2,369.2c-4.7-0.5-9.1-1.2-13.2-2.1c1.3-4.1,2.8-8.4,4.7-12.7c1.3,2.5,2.6,5,4.1,7.4h0
				C2224.1,364.3,2225.6,366.8,2227.2,369.2L2227.2,369.2L2227.2,369.2z"/>
			<path fill="#F4CF71" d="M2248.2,386.6c-2.9-3.1-5.8-6.6-8.6-10.4c2.8,0.1,5.6,0.2,8.4,0.2c2.9,0,5.8-0.1,8.7-0.2
				C2253.9,380,2251,383.5,2248.2,386.6L2248.2,386.6L2248.2,386.6z"/>
			<path fill="#F4CF71" d="M2277.5,354.2c1.9,4.4,3.5,8.6,4.8,12.6c-4.2,1-8.7,1.7-13.4,2.3c1.5-2.4,3-4.8,4.4-7.3
				C2274.8,359.2,2276.2,356.7,2277.5,354.2L2277.5,354.2L2277.5,354.2z"/>
			<path fill="#F4CF71" d="M2268.1,358.7c-2.2,3.9-4.6,7.6-6.9,11.1c-4.3,0.3-8.7,0.5-13.2,0.5c-4.5,0-8.8-0.1-13-0.4
				c-2.4-3.6-4.8-7.3-7-11.1h0c-2.2-3.8-4.3-7.7-6.1-11.6c1.9-3.9,3.9-7.7,6.1-11.6l0,0c2.2-3.8,4.6-7.6,7-11.1
				c4.3-0.3,8.7-0.5,13.1-0.5h0c4.5,0,8.8,0.2,13.1,0.5c2.4,3.5,4.7,7.2,6.9,11.1c2.3,3.9,4.3,7.8,6.2,11.5
				C2272.4,350.9,2270.3,354.8,2268.1,358.7L2268.1,358.7L2268.1,358.7z"/>
			<path fill="#F4CF71" d="M2280.7,290.1c4.8,2.8,6.7,14,3.7,28.7c-0.2,0.9-0.4,1.9-0.6,2.9c-6-1.4-12.4-2.4-19.2-3
				c-3.9-5.6-8-10.7-12.2-15.2c1.1-1.1,2.2-2.1,3.3-3C2266.3,291.2,2276.2,287.5,2280.7,290.1L2280.7,290.1L2280.7,290.1z"/>
			<path fill="#FFFFFF" d="M2248,334.2c7.1,0,12.8,5.7,12.8,12.8c0,7.1-5.7,12.8-12.8,12.8c-7.1,0-12.8-5.7-12.8-12.8
				C2235.2,339.9,2240.9,334.2,2248,334.2"/>
		</g>
		<g>
			<ellipse fill="#FFF2AC" cx="2248.4" cy="277.1" rx="11.5" ry="11.6"/>
			<path fill="#FFFFFF" d="M2248.4,265.5c-0.1,0-0.3,0-0.4,0v23.2c0.1,0,0.3,0,0.4,0c6.3,0,11.5-5.2,11.5-11.6
				S2254.7,265.5,2248.4,265.5z"/>
			<path fill="#F4CF71" d="M2248.4,285.1c-4.7,0-8.8-2.4-11.3-6c0.9,5.5,5.6,9.6,11.3,9.6c5.7,0,10.4-4.2,11.3-9.6
				C2257.2,282.7,2253.1,285.1,2248.4,285.1z"/>
		</g>
	</g>
</g>
<g>
	<g>
		<g>
			<g>
				<rect x="660.1" y="219.7" fill="#F4CF71" width="173.5" height="9.7"/>
				<rect x="660.1" y="209.4" fill="#F4CF71" width="9.7" height="18.6"/>
				<rect x="823.9" y="209.4" fill="#F4CF71" width="9.7" height="18.6"/>
				<rect x="667.1" y="209.4" fill="#F4CF71" width="160.1" height="3.3"/>
			</g>
		</g>
		<g>
			<rect x="678.6" y="60.3" fill="#364548" width="136.6" height="155.6"/>
			<g>
				<g>
					<polygon fill="#D3ECEC" points="708.5,195.7 710.1,199 713.8,199.5 711.2,202.1 711.8,205.8 708.5,204.1 705.2,205.8 
						705.8,202.1 703.2,199.5 706.9,199 					"/>
					<polygon fill="#D3ECEC" points="727.7,195.7 729.3,199 733,199.5 730.3,202.1 731,205.8 727.7,204.1 724.4,205.8 725,202.1 
						722.4,199.5 726,199 					"/>
					<polygon fill="#D3ECEC" points="746.9,195.7 748.5,199 752.2,199.5 749.5,202.1 750.1,205.8 746.9,204.1 743.6,205.8 
						744.2,202.1 741.5,199.5 745.2,199 					"/>
					<polygon fill="#D3ECEC" points="766,195.7 767.7,199 771.3,199.5 768.7,202.1 769.3,205.8 766,204.1 762.8,205.8 763.4,202.1 
						760.7,199.5 764.4,199 					"/>
					<polygon fill="#D3ECEC" points="785.2,195.7 786.9,199 790.5,199.5 787.9,202.1 788.5,205.8 785.2,204.1 781.9,205.8 
						782.6,202.1 779.9,199.5 783.6,199 					"/>
				</g>
			</g>
			<rect x="693.7" y="60.3" fill="#364548" width="15.1" height="92"/>
			<rect x="708.9" y="60.3" fill="#34BBDE" width="15.1" height="92"/>
			<rect x="678.6" y="60.3" fill="#34BBDE" width="15.1" height="92"/>
			<rect x="724.1" y="60.3" fill="#364548" width="15.1" height="92"/>
			<rect x="739.3" y="60.3" fill="#34BBDE" width="15.1" height="92"/>
			<rect x="754.4" y="60.3" fill="#364548" width="15.1" height="92"/>
			<rect x="769.6" y="60.3" fill="#34BBDE" width="15.1" height="92"/>
			<rect x="784.8" y="60.3" fill="#364548" width="15.1" height="92"/>
			<rect x="800" y="60.3" fill="#34BBDE" width="15.1" height="92"/>
			<g>
				<rect x="682.7" y="60.3" fill="#FFFFFF" width="3.2" height="155.6"/>
				<rect x="807.8" y="60.3" fill="#FFFFFF" width="3.2" height="155.6"/>
			</g>
		</g>
	</g>
	<g>
		<g>
			<g>
				<path fill="#F4B92F" d="M760.9,253.8c0,2.2-1.8,4-4,4h-19.2c-2.2,0-4-1.8-4-4l0,0c0-2.2,1.8-4,4-4h19.2
					C759.1,249.8,760.9,251.6,760.9,253.8L760.9,253.8z"/>
				<g>
					<circle fill="#FFF2AC" cx="747.3" cy="239.1" r="13.6"/>
					<path fill="#FFFFFF" d="M747.3,225.5c-0.2,0-0.3,0-0.5,0v27.2c0.2,0,0.3,0,0.5,0c7.5,0,13.6-6.1,13.6-13.6
						S754.8,225.5,747.3,225.5z"/>
					<path fill="#F4CF71" d="M747.3,248.5c-5.6,0-10.5-2.8-13.4-7c1.1,6.4,6.7,11.3,13.4,11.3c6.7,0,12.3-4.9,13.4-11.3
						C757.7,245.7,752.8,248.5,747.3,248.5z"/>
				</g>
				<circle fill="#F7B93C" cx="747.3" cy="346.8" r="91.7"/>
				<circle fill="#F4B92F" cx="747.3" cy="346.8" r="55.3"/>
			</g>
		</g>
		<g>
			<defs>
				<circle id="SVGID_5_" cx="747.5" cy="346.6" r="91.7"/>
			</defs>
			<clipPath id="SVGID_6_">
				<use xlink:href="#SVGID_5_"  overflow="visible"/>
			</clipPath>
			<path clip-path="url(#SVGID_6_)" fill="#FFF2AC" d="M855.1,287.6h33.8v34.5H906c7.9,0,16-1.4,23.5-3.9c3.7-1.2,7.8-3,11.4-5.2
				c-4.8-6.2-7.2-14.1-7.9-21.8c-1-10.5,1.2-24.3,8.3-32.5l3.6-4.1l4.2,3.4c10.7,8.6,19.6,20.5,21.2,34.2
				c12.8-3.8,27.9-2.9,39.2,3.6l4.6,2.7l-2.4,4.8c-9.6,18.7-29.6,24.5-49.1,23.4c-29.3,72.9-92.9,107.4-170.2,107.4
				c-39.9,0-76.5-14.9-97.3-50.3l-0.3-0.6l-3-6.2c-7-15.6-9.4-32.7-7.8-49.7l0.5-5.1h28.9v-34.5H747v-33.8h67.6v-33.8h40.5V287.6"/>
			<path clip-path="url(#SVGID_6_)" fill="#F4B92F" d="M964.6,300.4c2.3-17.6-10.9-31.4-19.1-38c-9.4,10.9-10.9,39.4,3.9,51.4
				c-8.2,7.3-25.6,14-43.4,14H689.4c-1.7,18.6,1.5,35.7,9,50.3l2.5,4.5c1.6,2.6,3.3,5.2,5.1,7.7h0c8.9,0.6,17.1,0.8,24.6,0.6h0
				c14.8-0.3,26.8-2.1,35.9-5.2c1.4-0.5,2.8,0.2,3.3,1.6c0.5,1.4-0.2,2.8-1.6,3.3c-1.2,0.4-2.5,0.8-3.8,1.2c0,0,0,0,0,0
				c-7.2,2.1-14.9,3.4-24.8,4c0.6,0-0.6,0.1-0.6,0.1c-0.3,0-0.8,0.1-1.1,0.1c-3.9,0.2-8.1,0.3-12.5,0.3c-4.7,0-9.4-0.1-14.6-0.4
				l-0.1,0.1c18,20.3,46.3,32.4,81.6,32.4c74.8,0,138.3-33.2,166.4-107.7c19.9,2,39.1-3,47.8-20.1
				C992.7,292.7,974.8,295.2,964.6,300.4"/>
			<path clip-path="url(#SVGID_6_)" fill="#FFC648" d="M964.6,300.4c2.3-17.6-10.9-31.4-19.1-38c-9.4,10.9-10.9,39.4,3.9,51.4
				c-8.2,7.3-25.6,14-43.4,14H702.2c-0.9,28.4,9.7,50,28.3,63.1h0c14.8-0.3,26.8-2.1,35.9-5.2c1.4-0.5,2.8,0.2,3.3,1.6
				c0.5,1.4-0.2,2.8-1.6,3.3c-1.2,0.4-2.5,0.8-3.8,1.2c0,0,0,0,0,0c-7.2,2.1-15.6,3.6-25.5,4.2c0,0-0.2-0.2-0.2-0.2
				c25.5,13.1,62.4,13,104.7-3.2c47.5-18.2,91.7-53,122.5-92.7C965.4,300,965,300.2,964.6,300.4"/>
			<path clip-path="url(#SVGID_6_)" fill="#F4B92F" d="M689.8,350.4c1.3,9.9,4.3,19.3,8.6,27.7l2.5,4.5c1.6,2.6,3.3,5.2,5.1,7.7
				c8.9,0.6,17.1,0.8,24.6,0.6c14.8-0.3,26.8-2.1,35.9-5.2c1.4-0.5,2.8,0.2,3.3,1.6c0.5,1.4-0.2,2.8-1.6,3.3
				c-1.2,0.4-2.5,0.8-3.8,1.2c0,0,0,0,0,0c-7.2,2.1-15.5,3.5-25.5,4.1c-0.3,0-0.9,0-1.3,0c-3.9,0.2-8.1,0.4-12.4,0.4
				c-4.7,0-9.5-0.1-14.7-0.4c18,20.3,46.4,32.5,81.8,32.5c64.1,0,119.8-24.3,152.2-78.1H689.8"/>
			<path clip-path="url(#SVGID_6_)" fill="#FFC648" d="M704.2,350.4c3.8,17.5,13,31.2,26.4,40.5c14.8-0.3,26.8-2.1,35.9-5.2
				c1.4-0.5,2.8,0.2,3.3,1.6c0.5,1.4-0.2,2.8-1.6,3.3c-1.2,0.4-2.5,0.8-3.8,1.2c0,0,0,0,0,0c-7.2,2.1-15.7,3.5-25.6,4.1
				c25.5,13.1,62.3,12.9,104.6-3.4c25.6-9.8,50.3-24.5,72.4-42.1H704.2"/>
			<path clip-path="url(#SVGID_6_)" fill="#F4CF71" d="M718.8,293.3h29.3v29.3h-29.3V293.3z M721.2,295.7h2.3v24.4h-2.3V295.7z
				 M725.6,295.7h2.4v24.4h-2.4V295.7z M730,295.7h2.4v24.4H730V295.7z M734.5,295.7h2.4v24.4h-2.4V295.7z M738.9,295.7h2.4v24.4
				h-2.4V295.7z M743.3,295.7h2.3v24.4h-2.3V295.7z"/>
			<path clip-path="url(#SVGID_6_)" fill="#F4CF71" d="M752.6,259.5h29.3v29.3h-29.3V259.5z M755,261.9h2.3v24.4H755V261.9z
				 M759.4,261.9h2.4v24.4h-2.4V261.9z M763.8,261.9h2.4v24.4h-2.4V261.9z M768.2,261.9h2.4v24.4h-2.4V261.9z M772.7,261.9h2.4v24.4
				h-2.4V261.9z M777.1,261.9h2.3v24.4h-2.3V261.9z"/>
			<path clip-path="url(#SVGID_6_)" fill="#F4CF71" d="M752.6,293.3h29.3v29.3h-29.3V293.3z M755,295.7h2.3v24.4H755V295.7z
				 M759.4,295.7h2.4v24.4h-2.4V295.7z M763.8,295.7h2.4v24.4h-2.4V295.7z M768.2,295.7h2.4v24.4h-2.4V295.7z M772.7,295.7h2.4v24.4
				h-2.4V295.7z M777.1,295.7h2.3v24.4h-2.3V295.7z"/>
			<path clip-path="url(#SVGID_6_)" fill="#F4CF71" d="M786.4,293.3h29.3v29.3h-29.3V293.3z M788.8,295.7h2.3v24.4h-2.3V295.7z
				 M793.2,295.7h2.4v24.4h-2.4V295.7z M797.6,295.7h2.4v24.4h-2.4V295.7z M802,295.7h2.4v24.4H802V295.7z M806.5,295.7h2.4v24.4
				h-2.4V295.7z M810.9,295.7h2.3v24.4h-2.3V295.7z"/>
			<path clip-path="url(#SVGID_6_)" fill="#F4CF71" d="M786.4,259.5h29.3v29.3h-29.3V259.5z M788.8,261.9h2.3v24.4h-2.3V261.9z
				 M793.2,261.9h2.4v24.4h-2.4V261.9z M797.6,261.9h2.4v24.4h-2.4V261.9z M802,261.9h2.4v24.4H802V261.9z M806.5,261.9h2.4v24.4
				h-2.4V261.9z M810.9,261.9h2.3v24.4h-2.3V261.9z"/>
			<path clip-path="url(#SVGID_6_)" fill="#F4CF71" d="M820.2,293.3h29.3v29.3h-29.3V293.3z M822.6,295.7h2.3v24.4h-2.3V295.7z
				 M826.9,295.7h2.4v24.4h-2.4V295.7z M831.4,295.7h2.4v24.4h-2.4V295.7z M835.8,295.7h2.4v24.4h-2.4V295.7z M840.3,295.7h2.4v24.4
				h-2.4V295.7z M844.7,295.7h2.3v24.4h-2.3V295.7z"/>
			<path clip-path="url(#SVGID_6_)" fill="#23A3C2" d="M820.2,259.5h29.3v29.3h-29.3V259.5z M822.6,261.9h2.3v24.4h-2.3V261.9z
				 M826.9,261.9h2.4v24.4h-2.4V261.9z M831.4,261.9h2.4v24.4h-2.4V261.9z M835.8,261.9h2.4v24.4h-2.4V261.9z M840.3,261.9h2.4v24.4
				h-2.4V261.9z M844.7,261.9h2.3v24.4h-2.3V261.9z"/>
			<path clip-path="url(#SVGID_6_)" fill="#34BBDE" d="M820.2,225.7h29.3V255h-29.3V225.7z M822.6,228.1h2.3v24.4h-2.3V228.1z
				 M826.9,228.1h2.4v24.4h-2.4V228.1z M831.4,228.1h2.4v24.4h-2.4V228.1z M835.8,228.1h2.4v24.4h-2.4V228.1z M840.3,228.1h2.4v24.4
				h-2.4V228.1z M844.7,228.1h2.3v24.4h-2.3V228.1z"/>
			<path clip-path="url(#SVGID_6_)" fill="#23A3C2" d="M854,293.3h29.3v29.3H854V293.3z M856.4,295.7h2.3v24.4h-2.3V295.7z
				 M860.7,295.7h2.4v24.4h-2.4V295.7z M865.2,295.7h2.4v24.4h-2.4V295.7z M869.6,295.7h2.4v24.4h-2.4V295.7z M874,295.7h2.4v24.4
				H874V295.7z M878.5,295.7h2.3v24.4h-2.3V295.7z"/>
			<path clip-path="url(#SVGID_6_)" fill="#F8FFFF" d="M780,370c4.5,0,8.1,3.6,8.1,8.1s-3.6,8.1-8.1,8.1c-4.5,0-8.1-3.6-8.1-8.1
				S775.6,370,780,370"/>
			<path clip-path="url(#SVGID_6_)" fill="#F4B92F" d="M780,372.3c0.7,0,1.4,0.1,2.1,0.4c-0.7,0.4-1.2,1.2-1.2,2
				c0,1.3,1.1,2.4,2.4,2.4c0.9,0,1.7-0.5,2.1-1.2c0.3,0.7,0.4,1.4,0.4,2.2c0,3.2-2.6,5.8-5.8,5.8c-3.2,0-5.8-2.6-5.8-5.8
				C774.2,374.9,776.8,372.3,780,372.3"/>
			<path clip-path="url(#SVGID_6_)" fill="#F7F3E2" d="M637.1,353.3H1013c-8.2-2.1-25.9-4.9-23-15.6c-14.9,17.2-50.8,12.1-59.8,3.6
				c-10.1,14.6-68.8,9.1-72.9-2.3c-12.6,14.8-51.8,14.8-64.5,0c-4.1,11.4-62.8,17-72.9,2.3c-9.1,8.5-44.9,13.6-59.8-3.6
				C663,348.4,645.3,351.2,637.1,353.3"/>
			<path clip-path="url(#SVGID_6_)" fill="#F7F3E2" d="M801.5,428.3c-20-9.5-31-22.4-37.1-36.5c-7.4,2.1-16.4,3.5-26.7,4.1
				c-3.9,0.2-8,0.3-12.3,0.3c-5,0-10.2-0.1-15.7-0.4c18.3,18.3,40.9,32.5,82.7,32.7C795.4,428.4,798.5,428.4,801.5,428.3"/>
		</g>
	</g>
	<circle fill="none" stroke="#F4B92F" stroke-width="12" stroke-miterlimit="10" cx="750.6" cy="346.9" r="92.8"/>
</g>
<g>
	<rect x="3516.2" y="-832" opacity="0.2" fill="#737393" width="500" height="500"/>
	<g>
		<rect x="20" y="-832" fill="#737393" width="500" height="500"/>
	</g>
	<rect x="519.5" y="-832" opacity="0.9" fill="#737393" width="500" height="500"/>
	<rect x="1018.9" y="-832" opacity="0.7" fill="#737393" width="500" height="500"/>
	<rect x="1518.4" y="-832" opacity="0.6" fill="#737393" width="500" height="500"/>
	<rect x="2017.8" y="-832" opacity="0.5" fill="#737393" width="500" height="500"/>
	<rect x="2517.3" y="-832" opacity="0.4" fill="#737393" width="500" height="500"/>
	<rect x="3016.8" y="-832" opacity="0.3" fill="#737393" width="500" height="500"/>
	<g>
		<rect x="4015.4" y="-831" fill="#737393" width="500" height="500"/>
	</g>
	<rect x="4514.9" y="-831" opacity="0.9" fill="#737393" width="500" height="500"/>
	<rect x="5014.3" y="-831" opacity="0.7" fill="#737393" width="500" height="500"/>
</g>
<g>
	<g>
		<g>
			<g>
				<rect x="4158.6" y="241.7" fill="#F4CF71" width="173.5" height="9.7"/>
				<rect x="4158.6" y="231.4" fill="#F4CF71" width="9.7" height="18.6"/>
				<rect x="4322.5" y="231.4" fill="#F4CF71" width="9.7" height="18.6"/>
				<rect x="4165.6" y="231.4" fill="#F4CF71" width="160.1" height="3.3"/>
			</g>
			<ellipse fill="#FFF2AC" cx="4246.6" cy="255.3" rx="9.6" ry="10.7"/>
			<path fill="#FFFFFF" d="M4246.6,244.5c-0.1,0-0.2,0-0.3,0V266c0.1,0,0.2,0,0.3,0c5.3,0,9.6-4.8,9.6-10.7
				C4256.1,249.3,4251.9,244.5,4246.6,244.5z"/>
			<path fill="#F4CF71" d="M4246.6,262.6c-3.9,0-7.4-2.2-9.4-5.5c0.8,5.1,4.7,8.9,9.4,8.9c4.7,0,8.7-3.9,9.4-8.9
				C4253.9,260.4,4250.5,262.6,4246.6,262.6z"/>
		</g>
		<g>
			<rect x="4177.1" y="82.3" fill="#E23237" width="136.6" height="155.6"/>
			<rect x="4192.3" y="145.9" fill="#FFFFFF" width="15.1" height="92"/>
			<rect x="4222.6" y="145.9" fill="#FFFFFF" width="15.1" height="92"/>
			<rect x="4253" y="145.9" fill="#FFFFFF" width="15.1" height="92"/>
			<rect x="4283.4" y="145.9" fill="#FFFFFF" width="15.1" height="92"/>
		</g>
	</g>
	<g>
		<path fill="#F4B92F" d="M4245.8,263.8l-73.4,25.8l11.6,96.1l61.8,34l62.2-34.5l11.6-96.1L4245.8,263.8z M4245.8,263.8"/>
		<path fill="#F4CF71" d="M4312.3,294.7l-66.7-22.7v139.6l55.9-30.9L4312.3,294.7z M4312.3,294.7"/>
		<path fill="#FFC648" d="M4180.6,295.1l9.9,86l55,30.5V272L4180.6,295.1z M4180.6,295.1"/>
		<path fill="#FFFFFF" d="M4261.1,341.4l-15.3-32l-13.5,32H4261.1z M4266.9,354.9h-40.7l-9.1,22.7l-16.9,0.3l45.4-100.9l46.9,100.9
			h-15.7L4266.9,354.9z M4266.9,354.9"/>
		<path fill="#FFFFFF" d="M4245.6,277l0.1,32.4l15.3,32.1h-15.4l0,13.4l21.3,0l10,23.1l16.2,0.3L4245.6,277z M4245.6,277"/>
	</g>
</g>
<g>
	<path fill="#F4B92F" d="M4755.6,250.6c0,1.7-1.4,3.2-3.2,3.2h-15.2c-1.7,0-3.2-1.4-3.2-3.2l0,0c0-1.7,1.4-3.2,3.2-3.2h15.2
		C4754.2,247.5,4755.6,248.9,4755.6,250.6L4755.6,250.6z"/>
	<g>
		<path fill="#F4CF71" d="M4744.9,248.4c-26.3,0-48-14.5-50.6-33.8l-0.6-4.5h102.4l-0.6,4.5C4792.9,233.8,4771.2,248.4,4744.9,248.4
			z M4703.3,218.1c4.7,12.8,21.9,22.3,41.6,22.3c19.7,0,36.8-9.5,41.6-22.3H4703.3z"/>
	</g>
	<g>
		<polygon fill="#F16529" points="4781.2,222.7 4708.5,222.7 4676.6,144.9 4676.6,67.1 4813.2,67.1 4813.2,144.9 		"/>
		<polygon fill="#E44D26" points="4708.5,222.7 4781.2,222.7 4781.4,222.4 4781.4,67.1 4708.4,67.1 4708.4,222.4 		"/>
		<g>
			<polygon fill="#FFFFFF" points="4697.3,195.3 4708.4,222.4 4708.4,67.1 4697.3,67.1 			"/>
			<polygon fill="#FFFFFF" points="4792.4,67.1 4781.3,67.1 4781.3,222.7 4792.4,195.6 			"/>
		</g>
		<g>
			<polygon fill="#FFFFFF" points="4765.5,97.8 4767.1,101.2 4770.8,101.7 4768.2,104.3 4768.8,107.9 4765.5,106.2 4762.2,107.9 
				4762.9,104.3 4760.2,101.7 4763.9,101.2 			"/>
			<polygon fill="#FFFFFF" points="4724.2,97.8 4725.9,101.2 4729.5,101.7 4726.9,104.3 4727.5,107.9 4724.2,106.2 4720.9,107.9 
				4721.6,104.3 4718.9,101.7 4722.6,101.2 			"/>
		</g>
		<rect x="4718.8" y="120.5" fill="#FFFFFF" width="10.4" height="102.2"/>
		<rect x="4739.7" y="120.5" fill="#FFFFFF" width="10.4" height="102.2"/>
		<rect x="4760.5" y="120.5" fill="#FFFFFF" width="10.4" height="102.2"/>
	</g>
	<g>
		<rect x="4680.9" y="251.9" fill="#F4B92F" width="128" height="35.5"/>
		<rect x="4740.9" y="254.9" fill="#F4CF71" width="62.5" height="27.5"/>
		<g>
			<path fill="#F4B92F" d="M4745.3,434.9l-51-14.2L4683,293.2h124.9l-11.4,127.5L4745.3,434.9z M4745.3,434.9"/>
			<path fill="#F4CF71" d="M4786.7,412.6l9.7-108.9h-51.1v120.4L4786.7,412.6z M4786.7,412.6"/>
			<path fill="#EBEBEB" d="M4745.4,366.6v-15.6h-20.7l-1.4-16h22.1v-15.6h-0.1h-39.2l0.4,4.2l3.8,43.1H4745.4z M4745.4,366.6"/>
			<path fill="#EBEBEB" d="M4745.4,391.6L4745.4,391.6l-17.5-4.7l-1.1-12.5h-8.5h-7.2l2.2,24.6l32,8.9l0.1,0V391.6z M4745.4,391.6"
				/>
			<path fill="#FFFFFF" d="M4694.6,258.6h7.9v7.8h7.3v-7.8h7.9v23.8h-7.9v-8h-7.3v8h-7.9V258.6L4694.6,258.6z M4694.6,258.6"/>
			<path fill="#FFFFFF" d="M4728.2,266.5h-7v-7.9h21.9v7.9h-7v15.9h-7.9V266.5L4728.2,266.5z M4728.2,266.5"/>
			<path fill="#FFFFFF" d="M4746.6,258.6h8.3l5.1,8.4l5.1-8.4h8.3v23.8h-7.9v-11.8l-5.5,8.5h-0.1l-5.5-8.5v11.8h-7.8V258.6
				L4746.6,258.6z M4746.6,258.6"/>
			<path fill="#FFFFFF" d="M4777.3,258.6h7.9v15.9h11.2v7.9h-19.1V258.6L4777.3,258.6z M4777.3,258.6"/>
			<path fill="#FFFFFF" d="M4781.7,350.9h-4.2h-32.1v15.6h19.3l-1.8,20.3l-17.4,4.7v16.3l32.1-8.9l0.2-2.6l3.7-41.2L4781.7,350.9z
				 M4781.7,350.9"/>
			<path fill="#FFFFFF" d="M4784.5,319.3h-39.2v9.7v5.9v0h37.7l0,0h0.1l0.3-3.5l0.7-7.9L4784.5,319.3z M4784.5,319.3"/>
		</g>
		<g>
			<circle fill="#FFF2AC" cx="4744.9" cy="292.1" r="9.5"/>
			<path fill="#FFFFFF" d="M4744.9,282.6c-0.1,0-0.2,0-0.3,0v18.9c0.1,0,0.2,0,0.3,0c5.2,0,9.5-4.2,9.5-9.5
				S4750.1,282.6,4744.9,282.6z"/>
			<path fill="#F4CF71" d="M4744.9,298.6c-3.9,0-7.3-1.9-9.3-4.9c0.8,4.5,4.7,7.9,9.3,7.9s8.6-3.4,9.3-7.9
				C4752.2,296.7,4748.7,298.6,4744.9,298.6z"/>
		</g>
	</g>
</g>
<g>
	<g>
		<g>
			<g>
				<path fill="#F4CF71" d="M5238.8,244.6c-26.3,0-48-14.5-50.6-33.8l-0.6-4.5H5290l-0.6,4.5
					C5286.8,230.1,5265.1,244.6,5238.8,244.6z M5197.2,214.3c4.7,12.8,21.9,22.3,41.6,22.3c19.7,0,36.8-9.5,41.6-22.3H5197.2z"/>
			</g>
			<g>
				<circle fill="#FFF2AC" cx="5238.8" cy="244.6" r="10.7"/>
				<path fill="#FFFFFF" d="M5238.8,233.9c-0.1,0-0.2,0-0.4,0v21.4c0.1,0,0.2,0,0.4,0c5.9,0,10.7-4.8,10.7-10.7
					C5249.5,238.7,5244.7,233.9,5238.8,233.9z"/>
				<path fill="#F4CF71" d="M5238.8,252c-4.4,0-8.3-2.2-10.6-5.5c0.9,5.1,5.3,8.9,10.6,8.9c5.3,0,9.7-3.9,10.6-8.9
					C5247,249.8,5243.1,252,5238.8,252z"/>
			</g>
		</g>
		<g>
			<polygon fill="#136DA9" points="5274.7,219.1 5202,219.1 5170.1,141.4 5170.1,63.6 5306.7,63.6 5306.7,141.4 			"/>
			<polygon fill="#F0F0F0" points="5202,219.1 5274.7,219.1 5274.9,218.8 5274.9,63.6 5201.9,63.6 5201.9,218.8 			"/>
			<g>
				<polygon fill="#008ECE" points="5190.8,191.8 5201.9,218.8 5201.9,63.6 5190.8,63.6 				"/>
				<polygon fill="#008ECE" points="5285.9,63.6 5274.8,63.6 5274.8,219.1 5285.9,192.1 				"/>
			</g>
			<g>
				<polygon fill="#136DA9" points="5259,116 5260.6,119.4 5264.3,119.9 5261.7,122.5 5262.3,126.1 5259,124.4 5255.7,126.1 
					5256.3,122.5 5253.7,119.9 5257.4,119.4 				"/>
				<polygon fill="#136DA9" points="5217.7,116 5219.4,119.4 5223,119.9 5220.4,122.5 5221,126.1 5217.7,124.4 5214.4,126.1 
					5215.1,122.5 5212.4,119.9 5216.1,119.4 				"/>
			</g>
			<polygon fill="#136DA9" points="5238.4,137.8 5244.1,149.4 5256.8,151.2 5247.6,160.2 5249.8,172.9 5238.4,166.9 5226.9,172.9 
				5229.1,160.2 5219.9,151.2 5232.6,149.4 			"/>
		</g>
	</g>
	<g>
		<path fill="#F4B92F" d="M5215.8,276.9c-33.6,14.3-54.8,42.3-54.8,78.3c0,46,37.3,83.3,83.3,83.3c46,0,83.3-37.3,83.3-83.3
			c0-55.3-51.4-77.3-51.4-77.3s-11.2-4.7-17.5-8.8c0,0-7.9-4.8-21.7-22.7C5237,246.4,5237.3,266.7,5215.8,276.9"/>
		<path fill="#F0F0F0" d="M5236,422.3c-2.9-2-2.2-8.5,5.7-3.9c0,0,16.9,12.4,43.6-2.5c2.1-1.2,4.6,2.9-2,6.7
			C5283.3,422.6,5256.3,436.4,5236,422.3L5236,422.3z"/>
		<path fill="none" stroke="#FFFDFF" d="M5236,422.3c-2.9-2-2.2-8.5,5.7-3.9c0,0,16.9,12.4,43.6-2.5c2.1-1.2,4.6,2.9-2,6.7
			C5283.3,422.6,5256.3,436.4,5236,422.3L5236,422.3z"/>
		<path fill="#F0F0F0" d="M5270.4,401.8c9.8,1.2,6.4,5.9,9.1,6.6c5.4,1.5,3.1-4.4,3.1-4.4c-4-7.9-10.8-7.4-10.8-7.4
			c-10.7-1.7-18.7,8.6-18.7,8.6c-2,4.4,0.8,4.6,1.8,4.1C5260,406.9,5263.2,400.9,5270.4,401.8L5270.4,401.8z"/>
		<path fill="none" stroke="#FFFDFF" d="M5270.4,401.8c9.8,1.2,6.4,5.9,9.1,6.6c5.4,1.5,3.1-4.4,3.1-4.4c-4-7.9-10.8-7.4-10.8-7.4
			c-10.7-1.7-18.7,8.6-18.7,8.6c-2,4.4,0.8,4.6,1.8,4.1C5260,406.9,5263.2,400.9,5270.4,401.8L5270.4,401.8z"/>
		<path fill="#F4CF71" d="M5172,397c0,0,29.9,24.7,102.5-30.3c0,0,36.5-22.9,35.4-62.2c0,0-11.8-17-31.7-25.7
			c-2.8-1.2-27.7-14.8-41.2-31.9c0,0-2.4,49.4-65.7,68.9c0,0-15.9,23.5-7.3,61.8C5164,377.7,5169.5,393.2,5172,397"/>
		<path fill="#F0F0F0" d="M5219.3,406.2c0,0-24.8,0.7-21.8-25.8c0,0,5.2-29.7,40-23.1c0,0,7.6,1.7,21.8,12.5c0,0,9.4,7.2,14.5,7.1
			c0,0,4,0.4,12.3-4.9c0,0,17-13.1,22.9-12.7c0.1,0,12-1.3,12,17.8c0,0,0.2,21-15.6,28.1c0,0-4.2,1.4-8.7-3.3c0,0-13-14.7-19.4-17.2
			c0,0-3.7-1.4-8.6,0.3c0,0-3.2,0.3-16.3,9C5252.4,394.1,5230.4,407.9,5219.3,406.2L5219.3,406.2z"/>
		<path fill="none" stroke="#FFFDFF" d="M5219.3,406.2c0,0-24.8,0.7-21.8-25.8c0,0,5.2-29.7,40-23.1c0,0,7.6,1.7,21.8,12.5
			c0,0,9.4,7.2,14.5,7.1c0,0,4,0.4,12.3-4.9c0,0,17-13.1,22.9-12.7c0.1,0,12-1.3,12,17.8c0,0,0.2,21-15.6,28.1c0,0-4.2,1.4-8.7-3.3
			c0,0-13-14.7-19.4-17.2c0,0-3.7-1.4-8.6,0.3c0,0-3.2,0.3-16.3,9C5252.4,394.1,5230.4,407.9,5219.3,406.2L5219.3,406.2z"/>
		<path fill="#F4CF71" d="M5232.4,311.5c16-23,4.5-65.2,4.5-65.2c-1.4,22.9-20.7,30.4-20.7,30.4c-34.6,14.9-45,38.5-45,38.5
			C5178.6,325.7,5198.3,360.3,5232.4,311.5"/>
		<path fill="#FFF2AC" d="M5236.9,246.3c0,0,2.1,19.3-8.4,25.5c0,0-16.8,7.8-21.9,10.4c0,0-21.5,13-28.6,25.2
			c0,0-15.2,20.3,5.8,15.5c0,0,37.9-10.7,53.3-43c0,0,0.9-2.7-2-5.5C5235.2,274.4,5246.7,265.7,5236.9,246.3"/>
		<path fill="#F0F0F0" d="M5236.9,246.3c0,0,0.9,13.2-10.1,24.1c0,0-3.3,4.6-20.2,11.8c0,0-19.4,10.1-28.1,24.1
			c0,0-12.9,15.5,4.8,11.4c0,0,35.8-13.2,48.9-37.4c0,0,1.8-2.5-0.9-5.2C5231.4,275.1,5244.2,265.1,5236.9,246.3"/>
	</g>
</g>
</svg>
